<svg xmlns="http://www.w3.org/2000/svg" width="532.9" height="3.2" style="overflow:visible;enable-background:new 0 0 532.9 3.2" xml:space="preserve"><style>.st0{fill:#f26c21}.st1{fill:#ffc742}.st2{fill:#48b978}.st3{fill:#c54b9a}.st4{fill:#00b0e1}.st5{fill:#ea3f43}</style><path class="st0" d="M532.912.036v3.2h-42.6v-3.2z"/><path class="st1" d="M490.321.026v3.2h-63.9v-3.2z"/><path class="st2" d="M426.331.016v3.2h-42.6v-3.2z"/><path class="st3" d="M341.066-.019v3.2h-42.6v-3.2z"/><path class="st4" d="M383.699.049v3.2h-42.6v-3.2z"/><path class="st5" d="m530.2 0 2.7.1V0zm-5.3 0 8 .4V.3l-5.3-.3zm-5.3 0 13.3.7V.5L522.2 0zm-5.4 0 18.7.9V.8l-16-.8zm18.7 1.2v-.1L511.6 0v.1zm0 .3v-.1L511.6.3v.1zm0 .3v-.2L511.6.5v.2zm0 .2v-.1L511.6.8v.1zm0 .3v-.1l-21.3-1.1v.1zm0 .3v-.2l-21.3-1v.1l12.7.6zm0 .2v-.1l-21.3-1.1v.2zm0 .3V3l-21.3-1.1V2zm-2.7.1h2.7l-21.3-1v.1zm-5.3 0h2.7l-16-.8v.2l12.7.6zm-2.6 0-10.7-.5v.1l8 .4zm-5.4 0-5.3-.2v.1l2.7.1zm-5.3-1zm21.3 0zm-21.3 1z"/><path class="st0" d="m487.6 0 2.7.1V0h-.1zm-5.3 0 8 .4V.3l-5.4-.3zm-5.4 0 13.4.7V.5L479.6 0zm-5.3 0 18.7.9V.8l-16-.8zm18.7 1.2v-.1h-.1.1L469 0v.1zm0 .3v-.1L469 .3v.1zm0 .3v-.2L469 .5v.2zm0 .2v-.1L469 .8v.1zm0 .3v-.1L469 1.1v.1zm0 .3v-.2l-21.3-1v.1l12.7.6zm0 .2v-.1L469 1.6v.2zm0 .3V3L469 1.9V2zm-2.7.1h2.7l-21.3-1v.1zm-5.3 0h2.6L469 2.4v.2l12.7.6zm-2.7 0L469 2.7v.1l8 .4zm-5.3 0L469 3v.1l2.6.1zm-5.3-1zm21.3 0h-.1zm-21.3 1z"/><path class="st2" d="m445 0 2.6.1V0zm-5.4 0 8 .4V.3l-5.3-.3zm-5.3 0 13.3.7V.5L437 0zM429 0l18.6.9V.8l-16-.8zm18.6 1.2v-.1L426.3 0v.1zm0 .3v-.1L426.3.3v.1zm0 .3v-.2L426.3.5v.2zm0 .2v-.1L426.3.8v.1zm0 .3v-.1l-21.3-1.1v.1zm0 .3v-.2l-21.3-1v.1l12.7.6zm0 .2v-.1l-21.3-1.1v.2zm0 .3V3l-21.3-1.1V2zm-2.6.1h2.6l-21.3-1v.1zm-5.3 0h2.6l-16-.8v.2l12.7.6zm-2.7 0-10.7-.5v.1l8 .4zm-5.3 0-5.4-.2v.1l2.7.1zm-5.3-1h-.1zm21.2 0zm-21.2 1h-.1z"/><path class="st4" d="m402.3 0 2.7.1V0zM397 0l8 .4V.3l-5.3-.3zm-5.3 0 13.3.7V.5L394.3 0zm-5.3 0 18.6.9V.8L389 0zM405 1.2v-.1L383.7 0v.1zm0 .3v-.1L383.7.3v.1zm0 .3v-.2L383.7.5v.2zm0 .2v-.1L383.7.8v.1zm0 .3v-.1l-21.3-1.1v.1zm0 .3v-.2l-21.3-1v.1l12.7.6zm0 .2v-.1l-21.3-1.1v.2zm0 .3V3l-21.3-1.1V2zm-2.7.1h2.7l-21.3-1v.1zm-5.3 0h2.7l-16-.8v.2l12.7.6zm-2.6 0-10.7-.5v.1l8 .4zm-5.4 0-5.3-.2v.1l2.7.1zm-5.3-1zm21.3 0zm-21.3 1z"/><path class="st3" d="m359.7 0 2.7.1V0h-.1zm-5.3 0 8 .4V.3L357 0zM349 0l13.4.7V.5L351.7 0zm-5.3 0 18.7.9V.8l-16-.8zm18.7 1.2v-.1h-.1.1L341.1 0v.1zm0 .3v-.1L341.1.3v.1zm0 .3v-.2L341.1.5v.2zm0 .2v-.1L341.1.8v.1zm0 .3v-.1l-21.3-1.1v.1zm0 .3v-.2l-21.3-1v.1l12.7.6zm0 .2v-.1l-21.3-1.1v.2zm0 .3V3l-21.3-1.1V2zm-2.7.1h2.7l-21.3-1v.1zm-5.3 0h2.7l-16-.8v.2l12.7.6zm-2.7 0-10.6-.5v.1l8 .4zm-5.3 0-5.3-.2v.1l2.6.1zm-5.3-1zm21.3 0h-.1zm-21.3 1z"/><path class="st5" d="m317.1 0 2.6.1V0zm-5.4 0 8 .4V.3l-5.3-.3zm-5.3 0 13.3.7V.5L309.1 0zm-5.3 0 18.6.9V.8l-16-.8zm18.6 1.2v-.1L298.4 0v.1zm0 .3v-.1L298.4.3v.1zm0 .3v-.2L298.4.5v.2zm0 .2v-.1L298.4.8v.1zm0 .3v-.1l-21.3-1.1v.1zm0 .3v-.2l-21.3-1v.1l12.7.6zm0 .2v-.1l-21.3-1.1v.2zm0 .3V3l-21.3-1.1V2zm-2.6.1h2.6l-21.3-1v.1zm-5.3 0h2.6l-16-.8v.2l12.7.6zm-2.7 0-10.7-.5v.1l8 .4zm-5.3 0-5.4-.2v.1l2.7.1zm-5.3-1h-.1zm21.2 0zm-21.2 1h-.1z"/><path class="st5" d="M298.434.014v3.2h-42.6v-3.2z"/><path class="st0" d="m274.4 0 2.7.1V0zm-5.3 0 8 .4V.3l-5.3-.3zm-5.3 0 13.3.7V.5L266.4 0zm-5.3 0 18.6.9V.8l-16-.8zm18.6 1.2v-.1L255.8 0v.1zm0 .3v-.1L255.8.3v.1zm0 .3v-.2L255.8.5v.2zm0 .2v-.1L255.8.8v.1zm0 .3v-.1l-21.3-1.1v.1zm0 .3v-.2l-21.3-1v.1l12.7.6zm0 .2v-.1l-21.3-1.1v.2zm0 .3V3l-21.3-1.1V2zm-2.7.1h2.7l-21.3-1v.1zm-5.3 0h2.7l-16-.8v.2l12.7.6zm-2.6 0-10.7-.5v.1l8 .4zm-5.4 0-5.3-.2v.1l2.7.1zm-5.3-1zm21.3 0zm-21.3 1zm-.04-3.212v3.2h-21.3v-3.2z"/><path class="st1" d="M234.527.02v3.2h-63.9V.02z"/><path class="st2" d="M170.537.01v3.2h-42.6V.01z"/><path class="st3" d="M85.272-.025v3.2h-42.6v-3.2z"/><path class="st4" d="M127.905.043v3.2h-42.6v-3.2z"/><path class="st0" d="m231.8 0 2.7.1V0h-.1zm-5.3 0 8 .4V.3l-5.4-.3zm-5.4 0 13.4.7V.5L223.8 0zm-5.3 0 18.7.9V.8l-16-.8zm18.7 1.2v-.1h-.1.1L213.2 0v.1zm0 .3v-.1L213.2.3v.1zm0 .3v-.2L213.2.5v.2zm0 .2v-.1L213.2.8v.1zm0 .3v-.1l-21.3-1.1v.1zm0 .3v-.2l-21.3-1v.1l12.7.6zm0 .2v-.1l-21.3-1.1v.2zm0 .3V3l-21.3-1.1V2zm-2.7.1h2.7l-21.3-1v.1zm-5.3 0h2.7l-16-.8v.2l12.7.6zm-2.7 0-10.6-.5v.1l8 .4zm-5.3 0-5.3-.2v.1l2.7.1zm-5.3-1zm21.3 0h-.1zm-21.3 1z"/><path class="st2" d="m189.2 0 2.6.1V0zm-5.4 0 8 .4V.3l-5.3-.3zm-5.3 0 13.3.7V.5L181.2 0zm-5.3 0 18.6.9V.8L175.9 0zm18.6 1.2v-.1L170.5 0v.1zm0 .3v-.1L170.5.3v.1zm0 .3v-.2L170.5.5v.2zm0 .2v-.1L170.5.8v.1zm0 .3v-.1l-21.3-1.1v.1zm0 .3v-.2l-21.3-1v.1l12.7.6zm0 .2v-.1l-21.3-1.1v.2zm0 .3V3l-21.3-1.1V2zm-2.6.1h2.6l-21.3-1v.1zm-5.3 0h2.6l-16-.8v.2l12.7.6zm-2.7 0-10.7-.5v.1l8 .4zm-5.3 0-5.4-.2v.1l2.7.1zm-5.3-1h-.1zm21.2 0zm-21.2 1h-.1z"/><path class="st4" d="m146.5 0 2.7.1V0zm-5.3 0 8 .4V.3l-5.3-.3zm-5.3 0 13.3.7V.5L138.5 0zm-5.3 0 18.6.9V.8l-16-.8zm18.6 1.2v-.1L127.9 0v.1zm0 .3v-.1L127.9.3v.1zm0 .3v-.2L127.9.5v.2zm0 .2v-.1L127.9.8v.1zm0 .3v-.1l-21.3-1.1v.1zm0 .3v-.2l-21.3-1v.1l12.7.6zm0 .2v-.1l-21.3-1.1v.2zm0 .3V3l-21.3-1.1V2zm-2.6.1h2.6l-21.3-1v.1zm-5.4 0h2.7l-16-.8v.2l12.7.6zm-2.6 0-10.7-.5v.1l8 .4zm-5.4 0-5.3-.2v.1l2.7.1zm-5.3-1zm21.3 0zm-21.3 1z"/><path class="st3" d="m103.9 0 2.7.1V0zm-5.3 0 8 .4V.3l-5.4-.3zm-5.4 0 13.4.7V.5L95.9 0zm-5.3 0 18.7.9V.8l-16-.8zm18.7 1.2v-.1L85.3 0v.1zm0 .3v-.1L85.3.3v.1zm0 .3v-.2L85.3.5v.2zm0 .2v-.1L85.3.8v.1zm0 .3v-.1L85.3 1.1v.1zm0 .3v-.2l-21.3-1v.1l12.7.6zm0 .2v-.1L85.3 1.6v.2zm0 .3V3L85.3 1.9V2zm-2.7.1h2.7l-21.3-1v.1zm-5.3 0h2.7l-16-.8v.2l12.7.6zm-2.7 0-10.6-.5v.1l8 .4zm-5.3 0L85.3 3v.1l2.7.1zm-5.3-1zm21.3 0zm-21.3 1z"/><path class="st5" d="m61.3 0 2.6.1V0zm-5.4 0 8 .4V.3L58.6 0zm-5.3 0 13.3.7V.5L53.3 0zm-5.3 0 18.6.9V.8L48 0zm18.6 1.2v-.1L42.6 0v.1zm0 .3v-.1L42.6.3v.1zm0 .3v-.2L42.6.5v.2zm0 .2v-.1L42.6.8v.1zm0 .3v-.1L42.6 1.1v.1zm0 .3v-.2l-21.3-1v.1l12.7.6zm0 .2v-.1L42.6 1.6v.2zm0 .3V3L42.6 1.9V2zm-2.6.1h2.6l-21.3-1v.1zm-5.3 0h2.6l-16-.8v.2l12.7.6zm-2.7 0-10.7-.5v.1l8 .4zm-5.3 0L42.6 3v.1l2.7.1zm-5.3-1h-.1zm21.2 0zm-21.2 1h-.1z"/><path class="st5" d="M42.64.008v3.2H.04v-3.2z"/><path class="st0" d="m18.6 0 2.7.1V0zm-5.3 0 8 .4V.3L16 0zM8 0l13.3.7V.5L10.6 0zM2.7 0l18.6.9V.8L5.3 0zm18.6 1.2v-.1L0 0v.1zm0 .3v-.1L0 .3v.1zm0 .3v-.2L0 .5v.2zm0 .2v-.1L0 .8v.1zm0 .3v-.1L0 1.1v.1zm0 .3v-.2L0 1.4v.1l12.7.6zm0 .2v-.1L0 1.6v.2zm0 .3V3L0 1.9V2zm-2.6.1h2.6L0 2.2v.1zm-5.4 0H16L0 2.4v.2l12.7.6zm-2.6 0L0 2.7v.1l8 .4zm-5.3 0L0 3v.1l2.7.1zM0 2.2zm21.3 0zM0 3.2z"/></svg>