<svg version="1.1" id="圖層_1" xmlns="http://www.w3.org/2000/svg" xmlns:xlink="http://www.w3.org/1999/xlink" x="0" y="0" viewBox="0 0 1533.8 533.2" style="enable-background:new 0 0 1533.8 533.2" xml:space="preserve"><style>.st1{fill:#f26c21}.st2{fill:#ffc742}.st3{fill:#48b978}.st4{fill:#c54b9a}.st5{fill:#00b0e1}.st6{fill:#ea3f43}.st13{fill:#262626}.st14{fill:#94785e}.st15{fill:#98d9e8}.st16{fill:#f2bad6}.st19{fill:none}.st22{fill:#fff}</style><defs><path id="SVGID_1_" d="M0 0h1533.8v533.2H0z"/></defs><clipPath id="SVGID_2_"><use xlink:href="#SVGID_1_" style="overflow:visible"/></clipPath><g style="clip-path:url(#SVGID_2_)"><path class="st1" d="M647.3-49.6h145.9v97.3H647.3z"/><path class="st2" d="M647.3 47.7h145.9v145.9H647.3z"/><path class="st3" d="M647.3 193.6h145.9v97.3H647.3z"/><path class="st4" d="M647.3 388.2h145.9v97.3H647.3z"/><path class="st5" d="M647.3 290.9h145.9v97.3H647.3z"/><path class="st6" d="m647.3-43.4 6.1-6.2h-6l-.1.1zm0 12.1 18.3-18.3h-6.1l-12.2 12.3zm0 12.2 30.4-30.5h-6.1l-24.3 24.4zm0 12.1 42.6-42.6h-6.1l-36.5 36.5zm54.8-42.6H696l-.1.1v-.1L647.3-.9h6.1zm12.1 0h-6.1L659.4-.9h6.1zm12.1 0h-6L671.6-.9h6zm12.2 0h-6.1L683.7-.9h6.1zm12.2 0h-6.1v.1-.1L695.9-.9h6.1zm12.1 0h-6L708.1-.9h6l29-29zm12.2 0h-6.1L720.2-.9h6.1zm12.1 0h-6L732.4-.9h6zm6.1 6.1v-6.1L744.6-.9h6zm0 12.2v-6.1L756.7-.9h6.1l29-29zm0 6L768.8-.9h6.1l18.3-18.3zm0 12.2L781-.9h6.1l6.1-6.2zM744.5-1l-.1.1h.1zm0-48.6v.1zM793.1-1v.1z"/><path class="st1" d="m647.3 53.9 6.1-6.2h-6l-.1.1zm0 12.1 18.3-18.3h-6.1l-12.2 12.2zm0 12.1 30.4-30.4h-6.1l-24.3 24.4zm0 12.2 42.6-42.6h-6.1l-36.5 36.5zm54.8-42.6H696l-.1.1v-.1l-48.6 48.7h6.1zm12.1 0h-6.1l-48.7 48.7h6.1zm12.1 0h-6l-48.7 48.7h6zm12.2 0h-6.1l-48.7 48.7h6.1zm12.2 0h-6.1v.1-.1l-48.7 48.7h6.1zm12.1 0h-6l-48.7 48.7h6l29-29zm12.2 0h-6.1l-48.7 48.7h6.1zm12.1 0h-6l-48.7 48.7h6zm6.1 6.1v-6.1l-48.6 48.7h6zm0 12.1v-6l-36.5 36.5h6.1l29-29zm0 6.1-24.4 24.4h6.1l18.3-18.3zm0 12.1L781 96.4h6.1l6.1-6.2zm-48.7 12.2-.1.1h.1zm0-48.6v.1zm48.6 48.6v.1z"/><path class="st3" d="m647.3 151.1 6.1-6.1h-6l-.1.1zm0 12.2 18.3-18.3h-6.1l-12.2 12.2zm0 12.1 30.4-30.4h-6.1l-24.3 24.3zm0 12.2 42.6-42.6h-6.1l-36.5 36.5zm54.8-42.6H696l-.1.1v-.1l-48.6 48.6h6.1zm12.1 0h-6.1l-48.7 48.6h6.1zm12.1 0h-6l-48.7 48.6h6zm12.2 0h-6.1l-48.7 48.6h6.1zm12.2 0h-6.1l-48.7 48.6h6.1zm12.1 0h-6l-48.7 48.6h6l29-28.9zm12.2 0h-6.1l-48.7 48.6h6.1zm12.1 0h-6l-48.7 48.6h6zm6.1 6.1V145l-48.6 48.6h6zm0 12.1v-6.1l-36.5 36.5h6.1l29-28.9zm0 6.1-24.4 24.3h6.1l18.3-18.3zm0 12.1L781 193.6h6.1l6.1-6.1zm-48.7 12.2zm0-48.6v.1zm48.6 48.6z"/><path class="st5" d="m647.3 248.4 6.1-6.1h-6.1zm0 12.1 18.3-18.2h-6.1l-12.2 12.2zm0 12.2 30.4-30.4h-6.1l-24.3 24.3zm0 12.1 42.6-42.5h-6.1l-36.5 36.5zm54.8-42.5h-6.2l-48.6 48.6h6.1zm12.1 0h-6.1l-48.7 48.6h6.1zm12.1 0h-6l-48.7 48.6h6zm12.2 0h-6.1l-48.7 48.6h6.1zm12.2 0h-6.1l-48.7 48.6h6.1zm12.1 0h-6l-48.7 48.6h6l29-29zm12.2 0h-6.1l-48.7 48.6h6.1zm12.1 0h-6l-48.7 48.6h6zm6.1 6v-6l-48.6 48.6h6zm0 12.2v-6.1l-36.5 36.5h6.1l29-29zm0 6-24.4 24.4h6.1l18.3-18.3zm0 12.2L781 290.9h6.1l6.1-6.1zm-48.7 12.1-.1.1h.1zm0-48.5zm48.6 48.5v.1z"/><path class="st4" d="m647.3 345.7 6.1-6.2h-6l-.1.1zm0 12.1 18.3-18.3h-6.1l-12.2 12.2zm0 12.2 30.4-30.5h-6.1l-24.3 24.4zm0 12.1 42.6-42.6h-6.1L647.3 376zm54.8-42.6H696l-.1.1v-.1l-48.6 48.7h6.1zm12.1 0h-6.1l-48.7 48.7h6.1zm12.1 0h-6l-48.7 48.7h6zm12.2 0h-6.1l-48.7 48.7h6.1zm12.2 0h-6.1v.1-.1l-48.7 48.7h6.1zm12.1 0h-6l-48.7 48.7h6l29-29zm12.2 0h-6.1l-48.7 48.7h6.1zm12.1 0h-6l-48.7 48.7h6zm6.1 6.1v-6.1l-48.6 48.7h6zm0 12.2v-6.1l-36.5 36.5h6.1l29-29zm0 6-24.4 24.4h6.1l18.3-18.3zm0 12.2L781 388.2h6.1l6.1-6.2zm-48.7 12.1-.1.1h.1zm0-48.6v.1zm48.6 48.6v.1z"/><path class="st6" d="m647.3 442.9 6.1-6.1h-6l-.1.1zm0 12.2 18.3-18.3h-6.1L647.3 449zm0 12.1 30.4-30.4h-6.1l-24.3 24.4zm0 12.2 42.6-42.6h-6.1l-36.5 36.5zm54.8-42.6H696l-.1.1v-.1l-48.6 48.6h6.1zm12.1 0h-6.1l-48.7 48.6h6.1zm12.1 0h-6l-48.7 48.6h6zm12.2 0h-6.1l-48.7 48.6h6.1zm12.2 0h-6.1l-48.7 48.6h6.1zm12.1 0h-6l-48.7 48.6h6l29-28.9zm12.2 0h-6.1l-48.7 48.6h6.1zm12.1 0h-6l-48.7 48.6h6zm6.1 6.1v-6.1l-48.6 48.6h6zm0 12.1v-6l-36.5 36.4h6.1l29-28.9zm0 6.1-24.4 24.3h6.1l18.3-18.2zm0 12.1L781 485.4h6.1l6.1-6.1zm-48.7 12.2zm0-48.6v.1zm48.6 48.6z"/><path class="st6" d="M647.3 485.4h145.9v97.3H647.3z"/><path class="st1" d="m647.3 540.2 6.1-6.1h-6.1zm0 12.2 18.3-18.3h-6.1l-12.2 12.2zm0 12.1 30.4-30.4h-6.1l-24.3 24.3zm0 12.1 42.6-42.5h-6.1l-36.5 36.5zm54.8-42.5h-6.2l-48.6 48.6h6.1zm12.1 0h-6.1l-48.7 48.6h6.1zm12.1 0h-6l-48.7 48.6h6zm12.2 0h-6.1l-48.7 48.6h6.1zm12.2 0h-6.1l-48.7 48.6h6.1zm12.1 0h-6l-48.7 48.6h6l29-29zm12.2 0h-6.1l-48.7 48.6h6.1zm12.1 0h-6l-48.7 48.6h6zm6.1 6.1v-6.1l-48.6 48.6h6zm0 12.1v-6.1l-36.5 36.5h6.1l29-29zm0 6.1-24.4 24.3h6.1l18.3-18.3zm0 12.1L781 582.7h6.1l6.1-6.1zm-48.7 12.2zm0-48.6zm48.6 48.6zm-145.8 0h145.9v48.6H647.3z"/><path class="st2" d="M647.3 631.4h145.9v145.9H647.3z"/><path class="st3" d="M647.3 777.3h145.9v97.3H647.3z"/><path class="st4" d="M647.3 971.8h145.9v97.3H647.3z"/><path class="st5" d="M647.3 874.5h145.9v97.3H647.3z"/><path class="st1" d="m647.3 637.5 6.1-6.1h-6.1zm0 12.1 18.3-18.2h-6.1l-12.2 12.2zm0 12.2 30.4-30.4h-6.1l-24.3 24.3zm0 12.1 42.6-42.5h-6.1l-36.5 36.4zm54.8-42.5h-6.2L647.3 680h6.1zm12.1 0h-6.1L659.4 680h6.1zm12.1 0h-6L671.6 680h6zm12.2 0h-6.1L683.7 680h6.1zm12.2 0h-6.1L695.9 680h6.1zm12.1 0h-6L708.1 680h6l29-29zm12.2 0h-6.1L720.2 680h6.1zm12.1 0h-6L732.4 680h6zm6.1 6v-6L744.6 680h6zm0 12.2v-6.1L756.7 680h6.1l29-29zm0 6L768.8 680h6.1l18.3-18.3zm0 12.2L781 680h6.1l6.1-6.1zm-48.7 12.1-.1.1h.1zm0-48.5zm48.6 48.5v.1z"/><path class="st3" d="m647.3 734.8 6.1-6.2h-6l-.1.1zm0 12.1 18.3-18.3h-6.1l-12.2 12.2zm0 12.2 30.4-30.5h-6.1L647.3 753zm0 12.1 42.6-42.6h-6.1l-36.5 36.5zm54.8-42.6H696l-.1.1v-.1l-48.6 48.7h6.1zm12.1 0h-6.1l-48.7 48.7h6.1zm12.1 0h-6l-48.7 48.7h6zm12.2 0h-6.1l-48.7 48.7h6.1zm12.2 0h-6.1v.1-.1l-48.7 48.7h6.1zm12.1 0h-6l-48.7 48.7h6l29-29zm12.2 0h-6.1l-48.7 48.7h6.1zm12.1 0h-6l-48.7 48.7h6zm6.1 6.1v-6.1l-48.6 48.7h6zm0 12.1v-6l-36.5 36.5h6.1l29-29zm0 6.1-24.4 24.4h6.1l18.3-18.3zm0 12.2L781 777.3h6.1l6.1-6.2zm-48.7 12.1-.1.1h.1zm0-48.6v.1zm48.6 48.6v.1z"/><path class="st5" d="m647.3 832 6.1-6.1h-6l-.1.1zm0 12.2 18.3-18.3h-6.1l-12.2 12.2zm0 12.1 30.4-30.4h-6.1l-24.3 24.4zm0 12.2 42.6-42.6h-6.1l-36.5 36.5zm54.8-42.6H696l-.1.1v-.1l-48.6 48.6h6.1zm12.1 0h-6.1l-48.7 48.6h6.1zm12.1 0h-6l-48.7 48.6h6zm12.2 0h-6.1l-48.7 48.6h6.1zm12.2 0h-6.1l-48.7 48.6h6.1zm12.1 0h-6l-48.7 48.6h6l29-28.9zm12.2 0h-6.1l-48.7 48.6h6.1zm12.1 0h-6l-48.7 48.6h6zm6.1 6.1v-6.1l-48.6 48.6h6zm0 12.1V838l-36.5 36.5h6.1l29-28.9zm0 6.1-24.4 24.3h6.1l18.3-18.2zm0 12.1L781 874.5h6.1l6.1-6.1zm-48.7 12.2zm0-48.6v.1zm48.6 48.6z"/><path class="st4" d="m647.3 929.3 6.1-6.1h-6.1zm0 12.2 18.3-18.3h-6.1l-12.2 12.2zm0 12.1 30.4-30.4h-6.1l-24.3 24.3zm0 12.1 42.6-42.5h-6.1l-36.5 36.5zm54.8-42.5h-6.2l-48.6 48.6h6.1zm12.1 0h-6.1l-48.7 48.6h6.1zm12.1 0h-6l-48.7 48.6h6zm12.2 0h-6.1l-48.7 48.6h6.1zm12.2 0h-6.1l-48.7 48.6h6.1zm12.1 0h-6l-48.7 48.6h6l29-29zm12.2 0h-6.1l-48.7 48.6h6.1zm12.1 0h-6l-48.7 48.6h6zm6.1 6v-6l-48.6 48.6h6zm0 12.2v-6.1l-36.5 36.5h6.1l29-29zm0 6.1-24.4 24.3h6.1l18.3-18.3zm0 12.1L781 971.8h6.1l6.1-6.1zm-48.7 12.1-.1.1h.1zm0-48.5zm48.6 48.5v.1z"/><path class="st6" d="m647.3 1026.6 6.1-6.2h-6l-.1.1zm0 12.1 18.3-18.3h-6.1l-12.2 12.3zm0 12.2 30.4-30.5h-6.1l-24.3 24.4zm0 12.1 42.6-42.6h-6.1l-36.5 36.5zm54.8-42.6H696l-.1.1v-.1l-48.6 48.7h6.1zm12.1 0h-6.1l-48.7 48.7h6.1zm12.1 0h-6l-48.7 48.7h6zm12.2 0h-6.1l-48.7 48.7h6.1zm12.2 0h-6.1v.1-.1l-48.7 48.7h6.1zm12.1 0h-6l-48.7 48.7h6l29-29zm12.2 0h-6.1l-48.7 48.7h6.1zm12.1 0h-6l-48.7 48.7h6zm6.1 6.1v-6.1l-48.6 48.7h6zm0 12.2v-6.1l-36.5 36.5h6.1l29-29zm0 6-24.4 24.4h6.1l18.3-18.3zm0 12.2-12.2 12.2h6.1l6.1-6.1zm-48.7 12.1-.1.1h.1zm0-48.6v.1zm48.6 48.6v.1zm-145.8.1h145.9v97.3H647.3z"/><path class="st1" d="m647.3 1123.9 6.1-6.2h-6l-.1.1zm0 12.1 18.3-18.3h-6.1l-12.2 12.2zm0 12.1 30.4-30.4h-6.1l-24.3 24.4zm0 12.2 42.6-42.6h-6.1l-36.5 36.5zm54.8-42.6H696l-.1.1v-.1l-48.6 48.7h6.1zm12.1 0h-6.1l-48.7 48.7h6.1zm12.1 0h-6l-48.7 48.7h6zm12.2 0h-6.1l-48.7 48.7h6.1zm12.2 0h-6.1v.1-.1l-48.7 48.7h6.1zm12.1 0h-6l-48.7 48.7h6l29-29zm12.2 0h-6.1l-48.7 48.7h6.1zm12.1 0h-6l-48.7 48.7h6zm6.1 6.1v-6.1l-48.6 48.7h6zm0 12.1v-6l-36.5 36.5h6.1l29-29zm0 6.1-24.4 24.4h6.1l18.3-18.3zm0 12.2-12.2 12.2h6.1l6.1-6.2zm-48.7 12.1-.1.1h.1zm0-48.6v.1zm48.6 48.6v.1z"/></g><defs><path id="SVGID_3_" d="M0 0h1533.8v533.2H0z"/></defs><clipPath id="SVGID_4_"><use xlink:href="#SVGID_3_" style="overflow:visible"/></clipPath><g style="clip-path:url(#SVGID_4_)"><path class="st1" d="M995.2-389h145.9v97.3H995.2z"/><path class="st2" d="M995.2-291.7h145.9v145.9H995.2z"/><path class="st3" d="M995.2-145.8h145.9v97.3H995.2z"/><path class="st4" d="M995.2 48.7h145.9V146H995.2z"/><path class="st5" d="M995.2-48.6h145.9v97.3H995.2z"/><path class="st6" d="m995.2-382.9 6.1-6.1h-6l-.1.1zm0 12.2 18.3-18.3h-6.1l-12.2 12.2zm0 12.1 30.4-30.4h-6.1l-24.3 24.3zm0 12.2 42.6-42.6h-6.1l-36.5 36.5zM1050-389h-6.1l-.1.1v-.1l-48.6 48.6h6.1zm12.1 0h-6.1l-48.7 48.6h6.1zm12.2 0h-6.1l-48.7 48.6h6.1zm12.1 0h-6.1l-48.7 48.6h6.1zm12.2 0h-6.1l-48.7 48.6h6.1zm12.1 0h-6l-48.7 48.6h6l29-28.9zm12.2 0h-6.1l-48.7 48.6h6.1zm12.1 0h-6l-48.7 48.6h6zm6.1 6.1v-6.1l-48.6 48.6h6zm0 12.1v-6.1l-36.5 36.5h6.1l29-28.9zm0 6.1-24.3 24.3h6l18.3-18.3zm0 12.1-12.2 12.2h6.1l6.1-6.1zm-48.7 12.2zm0-48.6v.1zm48.6 48.6z"/><path class="st1" d="m995.2-285.6 6.1-6.1h-6.1zm0 12.1 18.3-18.2h-6.1l-12.2 12.2zm0 12.2 30.4-30.4h-6.1l-24.3 24.3zm0 12.1 42.6-42.5h-6.1l-36.5 36.5zm54.8-42.5h-6.2l-48.6 48.6h6.1zm12.1 0h-6.1l-48.7 48.6h6.1zm12.2 0h-6.1l-48.7 48.6h6.1zm12.1 0h-6.1l-48.7 48.6h6.1zm12.2 0h-6.1l-48.7 48.6h6.1zm12.1 0h-6l-48.7 48.6h6l29-29zm12.2 0h-6.1l-48.7 48.6h6.1zm12.1 0h-6l-48.7 48.6h6zm6.1 6v-6l-48.6 48.6h6zm0 12.2v-6.1l-36.5 36.5h6.1l29-29zm0 6-24.3 24.4h6l18.3-18.3zm0 12.2-12.2 12.2h6.1l6.1-6.1zm-48.7 12.1-.1.1h.1zm0-48.5zm48.6 48.5v.1z"/><path class="st3" d="m995.2-188.3 6.1-6.2h-6l-.1.1zm0 12.1 18.3-18.3h-6.1l-12.2 12.2zm0 12.2 30.4-30.5h-6.1l-24.3 24.4zm0 12.1 42.6-42.6h-6.1L995.2-158zm54.8-42.6h-6.1l-.1.1v-.1l-48.6 48.7h6.1zm12.1 0h-6.1l-48.7 48.7h6.1zm12.2 0h-6.1l-48.7 48.7h6.1zm12.1 0h-6.1l-48.7 48.7h6.1zm12.2 0h-6.1v.1-.1l-48.7 48.7h6.1zm12.1 0h-6l-48.7 48.7h6l29-29zm12.2 0h-6.1l-48.7 48.7h6.1zm12.1 0h-6l-48.7 48.7h6zm6.1 6.1v-6.1l-48.6 48.7h6zm0 12.1v-6l-36.5 36.5h6.1l29-29zm0 6.1-24.3 24.4h6l18.3-18.3zm0 12.2-12.2 12.2h6.1l6.1-6.2zm-48.7 12.1-.1.1h.1zm0-48.6v.1zm48.6 48.6v.1z"/><path class="st5" d="m995.2-91.1 6.1-6.1h-6l-.1.1zm0 12.2 18.3-18.3h-6.1L995.2-85zm0 12.1 30.4-30.4h-6.1l-24.3 24.4zm0 12.2 42.6-42.6h-6.1l-36.5 36.5zm54.8-42.6h-6.1l-.1.1v-.1l-48.6 48.6h6.1zm12.1 0h-6.1l-48.7 48.6h6.1zm12.2 0h-6.1l-48.7 48.6h6.1zm12.1 0h-6.1l-48.7 48.6h6.1zm12.2 0h-6.1l-48.7 48.6h6.1zm12.1 0h-6L1056-48.6h6l29-28.9zm12.2 0h-6.1l-48.7 48.6h6.1zm12.1 0h-6l-48.7 48.6h6zm6.1 6.1v-6.1l-48.6 48.6h6zm0 12.1v-6l-36.5 36.4h6.1l29-28.9zm0 6.1-24.3 24.3h6l18.3-18.2zm0 12.1-12.2 12.2h6.1l6.1-6.1zm-48.7 12.2zm0-48.6v.1zm48.6 48.6z"/><path class="st4" d="m995.2 6.2 6.1-6.1h-6.1zm0 12.2L1013.5.1h-6.1l-12.2 12.2zm0 12.1L1025.6.1h-6.1l-24.3 24.3zm0 12.1L1037.8.1h-6.1l-36.5 36.5zM1050 .1h-6.2l-48.6 48.6h6.1zm12.1 0h-6.1l-48.7 48.6h6.1zm12.2 0h-6.1l-48.7 48.6h6.1zm12.1 0h-6.1l-48.7 48.6h6.1zm12.2 0h-6.1l-48.7 48.6h6.1zm12.1 0h-6L1056 48.7h6l29-29zm12.2 0h-6.1l-48.7 48.6h6.1zm12.1 0h-6l-48.7 48.6h6zm6.1 6.1V.1l-48.6 48.6h6zm0 12.1v-6.1l-36.5 36.5h6.1l29-29zm0 6.1-24.3 24.3h6l18.3-18.3zm0 12.1-12.2 12.2h6.1l6.1-6.1zm-48.7 12.2zm0-48.6zm48.6 48.6z"/><path class="st6" d="m995.2 103.5 6.1-6.1h-6.1zm0 12.1 18.3-18.2h-6.1l-12.2 12.2zm0 12.2 30.4-30.4h-6.1l-24.3 24.3zm0 12.1 42.6-42.5h-6.1l-36.5 36.4zm54.8-42.5h-6.2L995.2 146h6.1zm12.1 0h-6.1l-48.7 48.6h6.1zm12.2 0h-6.1l-48.7 48.6h6.1zm12.1 0h-6.1l-48.7 48.6h6.1zm12.2 0h-6.1l-48.7 48.6h6.1zm12.1 0h-6L1056 146h6l29-29zm12.2 0h-6.1l-48.7 48.6h6.1zm12.1 0h-6l-48.7 48.6h6zm6.1 6v-6l-48.6 48.6h6zm0 12.2v-6.1l-36.5 36.5h6.1l29-29zm0 6-24.3 24.4h6l18.3-18.3zm0 12.2-12.2 12.2h6.1l6.1-6.1zm-48.7 12.1-.1.1h.1zm0-48.5zm48.6 48.5v.1zm-145.8.1h145.9v97.3H995.2z"/><path class="st1" d="m995.2 200.8 6.1-6.2h-6l-.1.1zm0 12.1 18.3-18.3h-6.1l-12.2 12.2zm0 12.1 30.4-30.4h-6.1L995.2 219zm0 12.2 42.6-42.6h-6.1l-36.5 36.5zm54.8-42.6h-6.1l-.1.1v-.1l-48.6 48.7h6.1zm12.1 0h-6.1l-48.7 48.7h6.1zm12.2 0h-6.1l-48.7 48.7h6.1zm12.1 0h-6.1l-48.7 48.7h6.1zm12.2 0h-6.1v.1-.1l-48.7 48.7h6.1zm12.1 0h-6l-48.7 48.7h6l29-29zm12.2 0h-6.1l-48.7 48.7h6.1zm12.1 0h-6l-48.7 48.7h6zm6.1 6.1v-6.1l-48.6 48.7h6zm0 12.1v-6l-36.5 36.5h6.1l29-29zm0 6.1-24.3 24.4h6l18.3-18.3zm0 12.2-12.2 12.2h6.1l6.1-6.2zm-48.7 12.1-.1.1h.1zm0-48.6v.1zm48.6 48.6v.1zm-145.8.1h145.9v48.6H995.2z"/><path class="st2" d="M995.2 291.9h145.9v145.9H995.2z"/><path class="st3" d="M995.2 437.8h145.9v97.3H995.2z"/><path class="st4" d="M995.2 632.4h145.9v97.3H995.2z"/><path class="st5" d="M995.2 535.1h145.9v97.3H995.2z"/><path class="st1" d="m995.2 298 6.1-6.1h-6l-.1.1zm0 12.2 18.3-18.3h-6.1l-12.2 12.2zm0 12.1 30.4-30.4h-6.1l-24.3 24.4zm0 12.2 42.6-42.6h-6.1l-36.5 36.5zm54.8-42.6h-6.1l-.1.1v-.1l-48.6 48.6h6.1zm12.1 0h-6.1l-48.7 48.6h6.1zm12.2 0h-6.1l-48.7 48.6h6.1zm12.1 0h-6.1l-48.7 48.6h6.1zm12.2 0h-6.1l-48.7 48.6h6.1zm12.1 0h-6l-48.7 48.6h6l29-28.9zm12.2 0h-6.1l-48.7 48.6h6.1zm12.1 0h-6l-48.7 48.6h6zm6.1 6.1v-6.1l-48.6 48.6h6zm0 12.1V304l-36.5 36.5h6.1l29-28.9zm0 6.1-24.3 24.3h6l18.3-18.2zm0 12.1-12.2 12.2h6.1l6.1-6.1zm-48.7 12.2zm0-48.6v.1zm48.6 48.6z"/><path class="st3" d="m995.2 395.3 6.1-6.1h-6.1zm0 12.2 18.3-18.3h-6.1l-12.2 12.2zm0 12.1 30.4-30.4h-6.1l-24.3 24.3zm0 12.1 42.6-42.5h-6.1l-36.5 36.5zm54.8-42.5h-6.2l-48.6 48.6h6.1zm12.1 0h-6.1l-48.7 48.6h6.1zm12.2 0h-6.1l-48.7 48.6h6.1zm12.1 0h-6.1l-48.7 48.6h6.1zm12.2 0h-6.1l-48.7 48.6h6.1zm12.1 0h-6l-48.7 48.6h6l29-29zm12.2 0h-6.1l-48.7 48.6h6.1zm12.1 0h-6l-48.7 48.6h6zm6.1 6v-6l-48.6 48.6h6zm0 12.2v-6.1l-36.5 36.5h6.1l29-29zm0 6.1-24.3 24.3h6l18.3-18.3zm0 12.1-12.2 12.2h6.1l6.1-6.1zm-48.7 12.1-.1.1h.1zm0-48.5zm48.6 48.5v.1z"/><path class="st5" d="m995.2 492.6 6.1-6.2h-6l-.1.1zm0 12.1 18.3-18.3h-6.1l-12.2 12.3zm0 12.2 30.4-30.5h-6.1l-24.3 24.4zm0 12.1 42.6-42.6h-6.1l-36.5 36.5zm54.8-42.6h-6.1l-.1.1v-.1l-48.6 48.7h6.1zm12.1 0h-6.1l-48.7 48.7h6.1zm12.2 0h-6.1l-48.7 48.7h6.1zm12.1 0h-6.1l-48.7 48.7h6.1zm12.2 0h-6.1v.1-.1l-48.7 48.7h6.1zm12.1 0h-6l-48.7 48.7h6l29-29zm12.2 0h-6.1l-48.7 48.7h6.1zm12.1 0h-6l-48.7 48.7h6zm6.1 6.1v-6.1l-48.6 48.7h6zm0 12.2v-6.1l-36.5 36.5h6.1l29-29zm0 6-24.3 24.4h6l18.3-18.3zm0 12.2-12.2 12.2h6.1l6.1-6.2zm-48.7 12.1-.1.1h.1zm0-48.6v.1zM1141 535v.1z"/><path class="st4" d="m995.2 589.9 6.1-6.2h-6l-.1.1zm0 12.1 18.3-18.3h-6.1l-12.2 12.2zm0 12.1 30.4-30.4h-6.1l-24.3 24.4zm0 12.2 42.6-42.6h-6.1l-36.5 36.5zm54.8-42.6h-6.1l-.1.1v-.1l-48.6 48.7h6.1zm12.1 0h-6.1l-48.7 48.7h6.1zm12.2 0h-6.1l-48.7 48.7h6.1zm12.1 0h-6.1l-48.7 48.7h6.1zm12.2 0h-6.1v.1-.1l-48.7 48.7h6.1zm12.1 0h-6l-48.7 48.7h6l29-29zm12.2 0h-6.1l-48.7 48.7h6.1zm12.1 0h-6l-48.7 48.7h6zm6.1 6.1v-6.1l-48.6 48.7h6zm0 12.1v-6l-36.5 36.5h6.1l29-29zm0 6.1-24.3 24.4h6l18.3-18.3zm0 12.1-12.2 12.3h6.1l6.1-6.2zm-48.7 12.2-.1.1h.1zm0-48.6v.1zm48.6 48.6v.1z"/><path class="st6" d="m995.2 687.1 6.1-6.1h-6l-.1.1zm0 12.2 18.3-18.3h-6.1l-12.2 12.2zm0 12.1 30.4-30.4h-6.1l-24.3 24.3zm0 12.2 42.6-42.6h-6.1l-36.5 36.5zM1050 681h-6.1l-.1.1v-.1l-48.6 48.6h6.1zm12.1 0h-6.1l-48.7 48.6h6.1zm12.2 0h-6.1l-48.7 48.6h6.1zm12.1 0h-6.1l-48.7 48.6h6.1zm12.2 0h-6.1l-48.7 48.6h6.1zm12.1 0h-6l-48.7 48.6h6l29-28.9zm12.2 0h-6.1l-48.7 48.6h6.1zm12.1 0h-6l-48.7 48.6h6zm6.1 6.1V681l-48.6 48.6h6zm0 12.1v-6.1l-36.5 36.5h6.1l29-28.9zm0 6.1-24.3 24.3h6l18.3-18.2zm0 12.1-12.2 12.2h6.1l6.1-6.1zm-48.7 12.2zm0-48.6v.1zm48.6 48.6zm-145.8 0h145.9v97.3H995.2z"/><path class="st1" d="m995.2 784.4 6.1-6.1h-6.1zm0 12.1 18.3-18.2h-6.1l-12.2 12.2zm0 12.2 30.4-30.4h-6.1l-24.3 24.3zm0 12.1 42.6-42.5h-6.1l-36.5 36.5zm54.8-42.5h-6.2l-48.6 48.6h6.1zm12.1 0h-6.1l-48.7 48.6h6.1zm12.2 0h-6.1l-48.7 48.6h6.1zm12.1 0h-6.1l-48.7 48.6h6.1zm12.2 0h-6.1l-48.7 48.6h6.1zm12.1 0h-6l-48.7 48.6h6l29-29zm12.2 0h-6.1l-48.7 48.6h6.1zm12.1 0h-6l-48.7 48.6h6zm6.1 6v-6l-48.6 48.6h6zm0 12.2v-6.1l-36.5 36.5h6.1l29-29zm0 6.1-24.3 24.3h6l18.3-18.3zm0 12.1-12.2 12.2h6.1l6.1-6.1zm-48.7 12.1-.1.1h.1zm0-48.5zm48.6 48.5v.1z"/></g><defs><path id="SVGID_5_" d="M0 0h1533.8v533.2H0z"/></defs><clipPath id="SVGID_6_"><use xlink:href="#SVGID_5_" style="overflow:visible"/></clipPath><g style="clip-path:url(#SVGID_6_)"><path class="st1" d="M233.3-389h145.9v97.3H233.3z"/><path class="st2" d="M233.3-291.7h145.9v145.9H233.3z"/><path class="st3" d="M233.3-145.8h145.9v97.3H233.3z"/><path class="st4" d="M233.3 48.7h145.9V146H233.3z"/><path class="st5" d="M233.3-48.6h145.9v97.3H233.3z"/><path class="st6" d="m233.3-382.9 6.1-6.1h-6.1v.1zm0 12.2 18.2-18.3h-6l-12.2 12.2zm0 12.1 30.4-30.4h-6.1l-24.3 24.3zm0 12.2 42.5-42.6h-6.1l-36.4 36.5zM288-389h-6l-.1.1v-.1l-48.6 48.6h6zm12.2 0h-6.1l-48.7 48.6h6.1zm12.1 0h-6.1l-48.7 48.6h6.1zm12.2 0h-6.1l-48.7 48.6h6.1zm12.2 0h-6.2l-48.6 48.6h6.1zm12.1 0h-6.1L294-340.4h6.1l29-28.9zm12.1 0h-6l-48.7 48.6h6zm12.2 0H367l-48.7 48.6h6.1zm6.1 6.1v-6.1l-48.7 48.6h6.1zm0 12.1v-6.1l-36.5 36.5h6l29-28.9zm0 6.1-24.4 24.3h6.1l18.3-18.3zm0 12.1L367-340.4h6l6.2-6.1zm-48.8 12.2z"/><path class="st6" d="M330.5-389h-.1v.1zm48.6 48.6h-.1.1z"/><path class="st1" d="m233.3-285.6 6.1-6.1h-6.1zm0 12.1 18.2-18.2h-6l-12.2 12.2zm0 12.2 30.4-30.4h-6.1l-24.3 24.3zm0 12.1 42.5-42.5h-6.1l-36.4 36.5zm54.7-42.5h-6.1l-48.6 48.6h6zm12.2 0h-6.1l-48.7 48.6h6.1zm12.1 0h-6.1l-48.7 48.6h6.1zm12.2 0h-6.1l-48.7 48.6h6.1zm12.2 0h-6.2l-48.6 48.6h6.1zm12.1 0h-6.1L294-243.1h6.1l29-29zm12.1 0h-6l-48.7 48.6h6zm12.2 0H367l-48.7 48.6h6.1zm6.1 6v-6l-48.7 48.6h6.1zm0 12.2v-6.1l-36.5 36.5h6l29-29zm0 6-24.4 24.4h6.1l18.3-18.3zm0 12.2L367-243.1h6l6.2-6.1zm-48.8 12.1v.1zm.1-48.5h-.1zm48.6 48.5-.1.1h.1z"/><path class="st3" d="m233.3-188.3 6.1-6.2h-6.1v.1zm0 12.1 18.2-18.3h-6l-12.2 12.2zm0 12.2 30.4-30.5h-6.1l-24.3 24.4zm0 12.1 42.5-42.6h-6.1L233.3-158zm54.7-42.6h-6l-.1.1v-.1l-48.6 48.7h6zm12.2 0h-6.1l-48.7 48.7h6.1zm12.1 0h-6.1l-48.7 48.7h6.1zm12.2 0h-6.1l-48.7 48.7h6.1zm12.2 0h-6.1v.1l-.1-.1-48.6 48.7h6.1zm12.1 0h-6.1L294-145.8h6.1l29-29zm12.1 0h-6l-48.7 48.7h6zm12.2 0H367l-48.7 48.7h6.1zm6.1 6.1v-6.1l-48.7 48.7h6.1zm0 12.1v-6l-36.5 36.5h6l29-29zm0 6.1-24.4 24.4h6.1l18.3-18.3zm0 12.2L367-145.8h6l6.2-6.2zm-48.8 12.1v.1z"/><path class="st3" d="M330.5-194.5h-.1v.1zm48.6 48.6-.1.1h.1z"/><path class="st5" d="m233.3-91.1 6.1-6.1h-6.1v.1zm0 12.2 18.2-18.3h-6L233.3-85zm0 12.1 30.4-30.4h-6.1l-24.3 24.4zm0 12.2 42.5-42.6h-6.1l-36.4 36.5zM288-97.2h-6l-.1.1v-.1l-48.6 48.6h6zm12.2 0h-6.1l-48.7 48.6h6.1zm12.1 0h-6.1l-48.7 48.6h6.1zm12.2 0h-6.1l-48.7 48.6h6.1zm12.2 0h-6.2l-48.6 48.6h6.1zm12.1 0h-6.1L294-48.6h6.1l29-28.9zm12.1 0h-6l-48.7 48.6h6zm12.2 0H367l-48.7 48.6h6.1zm6.1 6.1v-6.1l-48.7 48.6h6.1zm0 12.1v-6l-36.5 36.4h6l29-28.9zm0 6.1-24.4 24.3h6.1l18.3-18.2zm0 12.1L367-48.6h6l6.2-6.1zm-48.8 12.2zm.1-48.6h-.1v.1zm48.6 48.6h-.1.1z"/><path class="st4" d="m233.3 6.2 6.1-6.1h-6.1zm0 12.2L251.5.1h-6l-12.2 12.2zm0 12.1L263.7.1h-6.1l-24.3 24.3zm0 12.1L275.8.1h-6.1l-36.4 36.5zM288 .1h-6.1l-48.6 48.6h6zm12.2 0h-6.1l-48.7 48.6h6.1zm12.1 0h-6.1l-48.7 48.6h6.1zm12.2 0h-6.1l-48.7 48.6h6.1zm12.2 0h-6.2l-48.6 48.6h6.1zm12.1 0h-6.1L294 48.7h6.1l29-29zm12.1 0h-6l-48.7 48.6h6zm12.2 0H367l-48.7 48.6h6.1zm6.1 6.1V.1l-48.7 48.6h6.1zm0 12.1v-6.1l-36.5 36.5h6l29-29zm0 6.1-24.4 24.3h6.1l18.3-18.3zm0 12.1L367 48.7h6l6.2-6.1zm-48.8 12.2zm.1-48.6h-.1zm48.6 48.6h-.1.1z"/><path class="st6" d="m233.3 103.5 6.1-6.1h-6.1zm0 12.1 18.2-18.2h-6l-12.2 12.2zm0 12.2 30.4-30.4h-6.1l-24.3 24.3zm0 12.1 42.5-42.5h-6.1l-36.4 36.4zM288 97.4h-6.1L233.3 146h6zm12.2 0h-6.1L245.4 146h6.1zm12.1 0h-6.1L257.5 146h6.1zm12.2 0h-6.1L269.7 146h6.1zm12.2 0h-6.2L281.9 146h6.1zm12.1 0h-6.1L294 146h6.1l29-29zm12.1 0h-6L306.2 146h6zm12.2 0H367L318.3 146h6.1zm6.1 6v-6L330.5 146h6.1zm0 12.2v-6.1L342.7 146h6l29-29zm0 6L354.8 146h6.1l18.3-18.3zm0 12.2L367 146h6l6.2-6.1zm-48.8 12.1v.1zm.1-48.5h-.1zm48.6 48.5-.1.1h.1zm-145.8.1h145.9v97.3H233.3z"/><path class="st1" d="m233.3 200.8 6.1-6.2h-6.1v.1zm0 12.1 18.2-18.3h-6l-12.2 12.2zm0 12.1 30.4-30.4h-6.1L233.3 219zm0 12.2 42.5-42.6h-6.1l-36.4 36.5zm54.7-42.6h-6l-.1.1v-.1l-48.6 48.7h6zm12.2 0h-6.1l-48.7 48.7h6.1zm12.1 0h-6.1l-48.7 48.7h6.1zm12.2 0h-6.1l-48.7 48.7h6.1zm12.2 0h-6.1v.1l-.1-.1-48.6 48.7h6.1zm12.1 0h-6.1L294 243.3h6.1l29-29zm12.1 0h-6l-48.7 48.7h6zm12.2 0H367l-48.7 48.7h6.1zm6.1 6.1v-6.1l-48.7 48.7h6.1zm0 12.1v-6l-36.5 36.5h6l29-29zm0 6.1-24.4 24.4h6.1l18.3-18.3zm0 12.2L367 243.3h6l6.2-6.2zm-48.8 12.1v.1z"/><path class="st1" d="M330.5 194.6h-.1v.1zm48.6 48.6-.1.1h.1zm-145.8.1h145.9v48.6H233.3z"/><path class="st2" d="M233.3 291.9h145.9v145.9H233.3z"/><path class="st3" d="M233.3 437.8h145.9v97.3H233.3z"/><path class="st4" d="M233.3 632.4h145.9v97.3H233.3z"/><path class="st5" d="M233.3 535.1h145.9v97.3H233.3z"/><path class="st1" d="m233.3 298 6.1-6.1h-6.1v.1zm0 12.2 18.2-18.3h-6l-12.2 12.2zm0 12.1 30.4-30.4h-6.1l-24.3 24.4zm0 12.2 42.5-42.6h-6.1l-36.4 36.5zm54.7-42.6h-6l-.1.1v-.1l-48.6 48.6h6zm12.2 0h-6.1l-48.7 48.6h6.1zm12.1 0h-6.1l-48.7 48.6h6.1zm12.2 0h-6.1l-48.7 48.6h6.1zm12.2 0h-6.2l-48.6 48.6h6.1zm12.1 0h-6.1L294 340.5h6.1l29-28.9zm12.1 0h-6l-48.7 48.6h6zm12.2 0H367l-48.7 48.6h6.1zm6.1 6.1v-6.1l-48.7 48.6h6.1zm0 12.1V304l-36.5 36.5h6l29-28.9zm0 6.1-24.4 24.3h6.1l18.3-18.2zm0 12.1L367 340.5h6l6.2-6.1zm-48.8 12.2z"/><path class="st1" d="M330.5 291.9h-.1v.1zm48.6 48.6h-.1.1z"/><path class="st3" d="m233.3 395.3 6.1-6.1h-6.1zm0 12.2 18.2-18.3h-6l-12.2 12.2zm0 12.1 30.4-30.4h-6.1l-24.3 24.3zm0 12.1 42.5-42.5h-6.1l-36.4 36.5zm54.7-42.5h-6.1l-48.6 48.6h6zm12.2 0h-6.1l-48.7 48.6h6.1zm12.1 0h-6.1l-48.7 48.6h6.1zm12.2 0h-6.1l-48.7 48.6h6.1zm12.2 0h-6.2l-48.6 48.6h6.1zm12.1 0h-6.1L294 437.8h6.1l29-29zm12.1 0h-6l-48.7 48.6h6zm12.2 0H367l-48.7 48.6h6.1zm6.1 6v-6l-48.7 48.6h6.1zm0 12.2v-6.1l-36.5 36.5h6l29-29zm0 6.1-24.4 24.3h6.1l18.3-18.3zm0 12.1L367 437.8h6l6.2-6.1zm-48.8 12.1v.1zm.1-48.5h-.1zm48.6 48.5-.1.1h.1z"/><path class="st5" d="m233.3 492.6 6.1-6.2h-6.1v.1zm0 12.1 18.2-18.3h-6l-12.2 12.3zm0 12.2 30.4-30.5h-6.1l-24.3 24.4zm0 12.1 42.5-42.6h-6.1l-36.4 36.5zm54.7-42.6h-6l-.1.1v-.1l-48.6 48.7h6zm12.2 0h-6.1l-48.7 48.7h6.1zm12.1 0h-6.1l-48.7 48.7h6.1zm12.2 0h-6.1l-48.7 48.7h6.1zm12.2 0h-6.1v.1l-.1-.1-48.6 48.7h6.1zm12.1 0h-6.1L294 535.1h6.1l29-29zm12.1 0h-6l-48.7 48.7h6zm12.2 0H367l-48.7 48.7h6.1zm6.1 6.1v-6.1l-48.7 48.7h6.1zm0 12.2v-6.1l-36.5 36.5h6l29-29zm0 6-24.4 24.4h6.1l18.3-18.3zm0 12.2L367 535.1h6l6.2-6.2zM330.4 535v.1zm.1-48.6h-.1v.1zm48.6 48.6-.1.1h.1z"/><path class="st4" d="m233.3 589.9 6.1-6.2h-6.1v.1zm0 12.1 18.2-18.3h-6l-12.2 12.2zm0 12.1 30.4-30.4h-6.1l-24.3 24.4zm0 12.2 42.5-42.6h-6.1l-36.4 36.5zm54.7-42.6h-6l-.1.1v-.1l-48.6 48.7h6zm12.2 0h-6.1l-48.7 48.7h6.1zm12.1 0h-6.1l-48.7 48.7h6.1zm12.2 0h-6.1l-48.7 48.7h6.1zm12.2 0h-6.1v.1l-.1-.1-48.6 48.7h6.1zm12.1 0h-6.1L294 632.4h6.1l29-29zm12.1 0h-6l-48.7 48.7h6zm12.2 0H367l-48.7 48.7h6.1zm6.1 6.1v-6.1l-48.7 48.7h6.1zm0 12.1v-6l-36.5 36.5h6l29-29zm0 6.1-24.4 24.4h6.1l18.3-18.3zm0 12.1L367 632.4h6l6.2-6.2zm-48.8 12.2v.1z"/><path class="st4" d="M330.5 583.7h-.1v.1zm48.6 48.6-.1.1h.1z"/><path class="st6" d="m233.3 687.1 6.1-6.1h-6.1v.1zm0 12.2 18.2-18.3h-6l-12.2 12.2zm0 12.1 30.4-30.4h-6.1l-24.3 24.3zm0 12.2 42.5-42.6h-6.1l-36.4 36.5zM288 681h-6l-.1.1v-.1l-48.6 48.6h6zm12.2 0h-6.1l-48.7 48.6h6.1zm12.1 0h-6.1l-48.7 48.6h6.1zm12.2 0h-6.1l-48.7 48.6h6.1zm12.2 0h-6.2l-48.6 48.6h6.1zm12.1 0h-6.1L294 729.6h6.1l29-28.9zm12.1 0h-6l-48.7 48.6h6zm12.2 0H367l-48.7 48.6h6.1zm6.1 6.1V681l-48.7 48.6h6.1zm0 12.1v-6.1l-36.5 36.5h6l29-28.9zm0 6.1-24.4 24.3h6.1l18.3-18.2zm0 12.1L367 729.6h6l6.2-6.1zm-48.8 12.2z"/><path class="st6" d="M330.5 681h-.1v.1zm48.6 48.6h-.1.1zm-145.8 0h145.9v97.3H233.3z"/><path class="st1" d="m233.3 784.4 6.1-6.1h-6.1zm0 12.1 18.2-18.2h-6l-12.2 12.2zm0 12.2 30.4-30.4h-6.1l-24.3 24.3zm0 12.1 42.5-42.5h-6.1l-36.4 36.5zm54.7-42.5h-6.1l-48.6 48.6h6zm12.2 0h-6.1l-48.7 48.6h6.1zm12.1 0h-6.1l-48.7 48.6h6.1zm12.2 0h-6.1l-48.7 48.6h6.1zm12.2 0h-6.2l-48.6 48.6h6.1zm12.1 0h-6.1L294 826.9h6.1l29-29zm12.1 0h-6l-48.7 48.6h6zm12.2 0H367l-48.7 48.6h6.1zm6.1 6v-6l-48.7 48.6h6.1zm0 12.2v-6.1l-36.5 36.5h6l29-29zm0 6.1-24.4 24.3h6.1l18.3-18.3zm0 12.1L367 826.9h6l6.2-6.1zm-48.8 12.1v.1zm.1-48.5h-.1zm48.6 48.5-.1.1h.1z"/></g><defs><path id="SVGID_7_" d="M0 0h1533.8v533.2H0z"/></defs><clipPath id="SVGID_8_"><use xlink:href="#SVGID_7_" style="overflow:visible"/></clipPath><g style="clip-path:url(#SVGID_8_)"><path class="st1" d="M-48.5-389H97.4v97.3H-48.5z"/><path class="st2" d="M-48.5-291.7H97.4v145.9H-48.5z"/><path class="st3" d="M-48.5-145.8H97.4v97.3H-48.5z"/><path class="st4" d="M-48.5 48.7H97.4V146H-48.5z"/><path class="st5" d="M-48.5-48.6H97.4v97.3H-48.5z"/><path class="st6" d="m-48.5-382.9 6.1-6.1h-6l-.1.1zm0 12.2 18.3-18.3h-6.1l-12.2 12.2zm0 12.1 30.4-30.4h-6l-24.4 24.3zm0 12.2L-5.9-389H-12l-36.5 36.5zM6.3-389H.2l-.1.1v-.1l-48.6 48.6h6.1zm12.1 0h-6.1l-48.7 48.6h6.1zm12.2 0h-6.1l-48.7 48.6h6.1zm12.1 0h-6.1l-48.7 48.6H-6zm12.2 0h-6.1L.1-340.4h6.1zm12.2 0H61l-48.7 48.6h6.1l28.9-28.9zm12.1 0h-6.1l-48.7 48.6h6.1zm12.1 0h-6l-48.7 48.6h6zm6.1 6.1v-6.1l-48.6 48.6h6zm0 12.1v-6.1l-36.5 36.5H67l29-28.9zm0 6.1-24.3 24.3h6l18.3-18.3zm0 12.1-12.2 12.2h6.1l6.1-6.1zm-48.7 12.2z"/><path class="st6" d="M48.8-389h-.1v.1zm48.5 48.6z"/><path class="st1" d="m-48.5-285.6 6.1-6.1h-6.1zm0 12.1 18.3-18.2h-6.1l-12.2 12.2zm0 12.2 30.4-30.4h-6l-24.4 24.3zm0 12.1 42.6-42.5H-12l-36.5 36.5zm54.8-42.5H.1l-48.6 48.6h6.1zm12.1 0h-6.1l-48.7 48.6h6.1zm12.2 0h-6.1l-48.7 48.6h6.1zm12.1 0h-6.1l-48.7 48.6H-6zm12.2 0h-6.1L.1-243.1h6.1zm12.2 0H61l-48.7 48.6h6.1l28.9-29zm12.1 0h-6.1l-48.7 48.6h6.1zm12.1 0h-6l-48.7 48.6h6zm6.1 6v-6l-48.6 48.6h6zm0 12.2v-6.1l-36.5 36.5H67l29-29zm0 6-24.3 24.4h6l18.3-18.3zm0 12.2-12.2 12.2h6.1l6.1-6.1zm-48.7 12.1-.1.1h.1zm.1-48.5h-.1zm48.5 48.5v.1z"/><path class="st3" d="m-48.5-188.3 6.1-6.2h-6l-.1.1zm0 12.1 18.3-18.3h-6.1l-12.2 12.2zm0 12.2 30.4-30.5h-6l-24.4 24.4zm0 12.1 42.6-42.6H-12L-48.5-158zm54.8-42.6H.2l-.1.1v-.1l-48.6 48.7h6.1zm12.1 0h-6.1l-48.7 48.7h6.1zm12.2 0h-6.1l-48.7 48.7h6.1zm12.1 0h-6.1l-48.7 48.7H-6zm12.2 0h-6.1v.1-.1L.1-145.8h6.1zm12.2 0H61l-48.7 48.7h6.1l28.9-29zm12.1 0h-6.1l-48.7 48.7h6.1zm12.1 0h-6l-48.7 48.7h6zm6.1 6.1v-6.1l-48.6 48.7h6zm0 12.1v-6l-36.5 36.5H67l29-29zm0 6.1-24.3 24.4h6l18.3-18.3zm0 12.2-12.2 12.2h6.1l6.1-6.2zm-48.7 12.1-.1.1h.1zm.1-48.6h-.1v.1zm48.5 48.6v.1z"/><path class="st5" d="m-48.5-91.1 6.1-6.1h-6l-.1.1zm0 12.2 18.3-18.3h-6.1L-48.5-85zm0 12.1 30.4-30.4h-6l-24.4 24.4zm0 12.2 42.6-42.6H-12l-36.5 36.5zM6.3-97.2H.2l-.1.1v-.1l-48.6 48.6h6.1zm12.1 0h-6.1l-48.7 48.6h6.1zm12.2 0h-6.1l-48.7 48.6h6.1zm12.1 0h-6.1l-48.7 48.6H-6zm12.2 0h-6.1L.1-48.6h6.1zm12.2 0H61L12.3-48.6h6.1l28.9-28.9zm12.1 0h-6.1L24.4-48.6h6.1zm12.1 0h-6L36.6-48.6h6zm6.1 6.1v-6.1L48.8-48.6h6zm0 12.1v-6L60.9-48.6H67l29-28.9zm0 6.1L73.1-48.6h6l18.3-18.2zm0 12.1L85.2-48.6h6.1l6.1-6.1zM48.7-48.6z"/><path class="st5" d="M48.8-97.2h-.1v.1zm48.5 48.6z"/><path class="st4" d="m-48.5 6.2 6.1-6.1h-6.1zm0 12.2L-30.2.1h-6.1l-12.2 12.2zm0 12.1L-18.1.1h-6l-24.4 24.3zm0 12.1L-5.9.1H-12l-36.5 36.5zM6.3.1H.1l-48.6 48.6h6.1zm12.1 0h-6.1l-48.7 48.6h6.1zm12.2 0h-6.1l-48.7 48.6h6.1zm12.1 0h-6.1l-48.7 48.6H-6zm12.2 0h-6.1L.1 48.7h6.1zm12.2 0H61L12.3 48.7h6.1l28.9-29zm12.1 0h-6.1L24.4 48.7h6.1zm12.1 0h-6L36.6 48.7h6zm6.1 6.1V.1L48.8 48.7h6zm0 12.1v-6.1L60.9 48.7H67l29-29zm0 6.1L73.1 48.7h6l18.3-18.3zm0 12.1L85.2 48.7h6.1l6.1-6.1zM48.7 48.7zM48.8.1h-.1zm48.5 48.6z"/><path class="st6" d="m-48.5 103.5 6.1-6.1h-6.1zm0 12.1 18.3-18.2h-6.1l-12.2 12.2zm0 12.2 30.4-30.4h-6l-24.4 24.3zm0 12.1 42.6-42.5H-12l-36.5 36.4zM6.3 97.4H.1L-48.5 146h6.1zm12.1 0h-6.1L-36.4 146h6.1zm12.2 0h-6.1L-24.2 146h6.1zm12.1 0h-6.1L-12.1 146H-6zm12.2 0h-6.1L.1 146h6.1zm12.2 0H61L12.3 146h6.1l28.9-29zm12.1 0h-6.1L24.4 146h6.1zm12.1 0h-6L36.6 146h6zm6.1 6v-6L48.8 146h6zm0 12.2v-6.1L60.9 146H67l29-29zm0 6L73.1 146h6l18.3-18.3zm0 12.2L85.2 146h6.1l6.1-6.1zm-48.7 12.1-.1.1h.1zm.1-48.5h-.1zm48.5 48.5v.1zm-145.8.1H97.4v97.3H-48.5z"/><path class="st1" d="m-48.5 200.8 6.1-6.2h-6l-.1.1zm0 12.1 18.3-18.3h-6.1l-12.2 12.2zm0 12.1 30.4-30.4h-6L-48.5 219zm0 12.2 42.6-42.6H-12l-36.5 36.5zm54.8-42.6H.2l-.1.1v-.1l-48.6 48.7h6.1zm12.1 0h-6.1l-48.7 48.7h6.1zm12.2 0h-6.1l-48.7 48.7h6.1zm12.1 0h-6.1l-48.7 48.7H-6zm12.2 0h-6.1v.1-.1L.1 243.3h6.1zm12.2 0H61l-48.7 48.7h6.1l28.9-29zm12.1 0h-6.1l-48.7 48.7h6.1zm12.1 0h-6l-48.7 48.7h6zm6.1 6.1v-6.1l-48.6 48.7h6zm0 12.1v-6l-36.5 36.5H67l29-29zm0 6.1-24.3 24.4h6L97.4 225zm0 12.2-12.2 12.2h6.1l6.1-6.2zm-48.7 12.1-.1.1h.1zm.1-48.6h-.1v.1zm48.5 48.6v.1zm-145.8.1H97.4v48.6H-48.5z"/><path class="st2" d="M-48.5 291.9H97.4v145.9H-48.5z"/><path class="st3" d="M-48.5 437.8H97.4v97.3H-48.5z"/><path class="st4" d="M-48.5 632.4H97.4v97.3H-48.5z"/><path class="st5" d="M-48.5 535.1H97.4v97.3H-48.5z"/><path class="st1" d="m-48.5 298 6.1-6.1h-6l-.1.1zm0 12.2 18.3-18.3h-6.1l-12.2 12.2zm0 12.1 30.4-30.4h-6l-24.4 24.4zm0 12.2 42.6-42.6H-12l-36.5 36.5zm54.8-42.6H.2l-.1.1v-.1l-48.6 48.6h6.1zm12.1 0h-6.1l-48.7 48.6h6.1zm12.2 0h-6.1l-48.7 48.6h6.1zm12.1 0h-6.1l-48.7 48.6H-6zm12.2 0h-6.1L.1 340.5h6.1zm12.2 0H61l-48.7 48.6h6.1l28.9-28.9zm12.1 0h-6.1l-48.7 48.6h6.1zm12.1 0h-6l-48.7 48.6h6zm6.1 6.1v-6.1l-48.6 48.6h6zm0 12.1V304l-36.5 36.5H67l29-28.9zm0 6.1-24.3 24.3h6l18.3-18.2zm0 12.1-12.2 12.2h6.1l6.1-6.1zm-48.7 12.2z"/><path class="st1" d="M48.8 291.9h-.1v.1zm48.5 48.6z"/><path class="st3" d="m-48.5 395.3 6.1-6.1h-6.1zm0 12.2 18.3-18.3h-6.1l-12.2 12.2zm0 12.1 30.4-30.4h-6l-24.4 24.3zm0 12.1 42.6-42.5H-12l-36.5 36.5zm54.8-42.5H.1l-48.6 48.6h6.1zm12.1 0h-6.1l-48.7 48.6h6.1zm12.2 0h-6.1l-48.7 48.6h6.1zm12.1 0h-6.1l-48.7 48.6H-6zm12.2 0h-6.1L.1 437.8h6.1zm12.2 0H61l-48.7 48.6h6.1l28.9-29zm12.1 0h-6.1l-48.7 48.6h6.1zm12.1 0h-6l-48.7 48.6h6zm6.1 6v-6l-48.6 48.6h6zm0 12.2v-6.1l-36.5 36.5H67l29-29zm0 6.1-24.3 24.3h6l18.3-18.3zm0 12.1-12.2 12.2h6.1l6.1-6.1zm-48.7 12.1-.1.1h.1zm.1-48.5h-.1zm48.5 48.5v.1z"/><path class="st5" d="m-48.5 492.6 6.1-6.2h-6l-.1.1zm0 12.1 18.3-18.3h-6.1l-12.2 12.3zm0 12.2 30.4-30.5h-6l-24.4 24.4zm0 12.1 42.6-42.6H-12l-36.5 36.5zm54.8-42.6H.2l-.1.1v-.1l-48.6 48.7h6.1zm12.1 0h-6.1l-48.7 48.7h6.1zm12.2 0h-6.1l-48.7 48.7h6.1zm12.1 0h-6.1l-48.7 48.7H-6zm12.2 0h-6.1v.1-.1L.1 535.1h6.1zm12.2 0H61l-48.7 48.7h6.1l28.9-29zm12.1 0h-6.1l-48.7 48.7h6.1zm12.1 0h-6l-48.7 48.7h6zm6.1 6.1v-6.1l-48.6 48.7h6zm0 12.2v-6.1l-36.5 36.5H67l29-29zm0 6-24.3 24.4h6l18.3-18.3zm0 12.2-12.2 12.2h6.1l6.1-6.2zM48.7 535l-.1.1h.1zm.1-48.6h-.1v.1zM97.3 535v.1z"/><path class="st4" d="m-48.5 589.9 6.1-6.2h-6l-.1.1zm0 12.1 18.3-18.3h-6.1l-12.2 12.2zm0 12.1 30.4-30.4h-6l-24.4 24.4zm0 12.2 42.6-42.6H-12l-36.5 36.5zm54.8-42.6H.2l-.1.1v-.1l-48.6 48.7h6.1zm12.1 0h-6.1l-48.7 48.7h6.1zm12.2 0h-6.1l-48.7 48.7h6.1zm12.1 0h-6.1l-48.7 48.7H-6zm12.2 0h-6.1v.1-.1L.1 632.4h6.1zm12.2 0H61l-48.7 48.7h6.1l28.9-29zm12.1 0h-6.1l-48.7 48.7h6.1zm12.1 0h-6l-48.7 48.7h6zm6.1 6.1v-6.1l-48.6 48.7h6zm0 12.1v-6l-36.5 36.5H67l29-29zm0 6.1-24.3 24.4h6l18.3-18.3zm0 12.1-12.2 12.3h6.1l6.1-6.2zm-48.7 12.2-.1.1h.1z"/><path class="st4" d="M48.8 583.7h-.1v.1zm48.5 48.6v.1z"/><path class="st6" d="m-48.5 687.1 6.1-6.1h-6l-.1.1zm0 12.2 18.3-18.3h-6.1l-12.2 12.2zm0 12.1 30.4-30.4h-6l-24.4 24.3zm0 12.2L-5.9 681H-12l-36.5 36.5zM6.3 681H.2l-.1.1v-.1l-48.6 48.6h6.1zm12.1 0h-6.1l-48.7 48.6h6.1zm12.2 0h-6.1l-48.7 48.6h6.1zm12.1 0h-6.1l-48.7 48.6H-6zm12.2 0h-6.1L.1 729.6h6.1zm12.2 0H61l-48.7 48.6h6.1l28.9-28.9zm12.1 0h-6.1l-48.7 48.6h6.1zm12.1 0h-6l-48.7 48.6h6zm6.1 6.1V681l-48.6 48.6h6zm0 12.1v-6.1l-36.5 36.5H67l29-28.9zm0 6.1-24.3 24.3h6l18.3-18.2zm0 12.1-12.2 12.2h6.1l6.1-6.1zm-48.7 12.2z"/><path class="st6" d="M48.8 681h-.1v.1zm48.5 48.6zm-145.8 0H97.4v97.3H-48.5z"/><path class="st1" d="m-48.5 784.4 6.1-6.1h-6.1zm0 12.1 18.3-18.2h-6.1l-12.2 12.2zm0 12.2 30.4-30.4h-6l-24.4 24.3zm0 12.1 42.6-42.5H-12l-36.5 36.5zm54.8-42.5H.1l-48.6 48.6h6.1zm12.1 0h-6.1l-48.7 48.6h6.1zm12.2 0h-6.1l-48.7 48.6h6.1zm12.1 0h-6.1l-48.7 48.6H-6zm12.2 0h-6.1L.1 826.9h6.1zm12.2 0H61l-48.7 48.6h6.1l28.9-29zm12.1 0h-6.1l-48.7 48.6h6.1zm12.1 0h-6l-48.7 48.6h6zm6.1 6v-6l-48.6 48.6h6zm0 12.2v-6.1l-36.5 36.5H67l29-29zm0 6.1-24.3 24.3h6l18.3-18.3zm0 12.1-12.2 12.2h6.1l6.1-6.1zm-48.7 12.1-.1.1h.1zm.1-48.5h-.1zm48.5 48.5v.1z"/></g><defs><path id="SVGID_9_" d="M0 0h1533.8v533.2H0z"/></defs><clipPath id="SVGID_10_"><use xlink:href="#SVGID_9_" style="overflow:visible"/></clipPath><g style="clip-path:url(#SVGID_10_)"><path class="st1" d="M404.8-49.6h145.9v97.3H404.8z"/><path class="st2" d="M404.8 47.7h145.9v145.9H404.8z"/><path class="st3" d="M404.8 193.6h145.9v97.3H404.8z"/><path class="st4" d="M404.8 388.2h145.9v97.3H404.8z"/><path class="st5" d="M404.8 290.9h145.9v97.3H404.8z"/><path class="st6" d="m404.8-43.4 6.1-6.2h-6l-.1.1zm0 12.1 18.3-18.3H417l-12.2 12.3zm0 12.2 30.4-30.5h-6l-24.4 24.4zm0 12.1 42.6-42.6h-6.1l-36.5 36.5zm54.8-42.6h-6.1l-.1.1v-.1L404.8-.9h6.1zm12.1 0h-6L417-.9h6zm12.2 0h-6.1L429.1-.9h6.1zm12.1 0h-6.1L441.2-.9h6.1zm12.2 0h-6.1v.1-.1L453.4-.9h6.1zm12.2 0h-6.1L465.6-.9h6.1l28.9-29zm12.1 0h-6.1L477.7-.9h6.1zm12.1 0h-6L489.9-.9h6zm6.1 6.1v-6.1L502.1-.9h6.1zm0 12.2v-6.1L514.2-.9h6.1l29-29zm0 6L526.4-.9h6l18.3-18.3zm0 12.2L538.5-.9h6.1l6.1-6.2zM502-1l-.1.1h.1zm.1-48.6h-.1v.1zM550.6-1v.1z"/><path class="st1" d="m404.8 53.9 6.1-6.2h-6l-.1.1zm0 12.1 18.3-18.3H417l-12.2 12.2zm0 12.1 30.4-30.4h-6l-24.4 24.4zm0 12.2 42.6-42.6h-6.1l-36.5 36.5zm54.8-42.6h-6.1l-.1.1v-.1l-48.6 48.7h6.1zm12.1 0h-6L417 96.4h6zm12.2 0h-6.1l-48.7 48.7h6.1zm12.1 0h-6.1l-48.7 48.7h6.1zm12.2 0h-6.1v.1-.1l-48.7 48.7h6.1zm12.2 0h-6.1l-48.7 48.7h6.1l28.9-29zm12.1 0h-6.1l-48.7 48.7h6.1zm12.1 0h-6l-48.7 48.7h6zm6.1 6.1v-6.1l-48.6 48.7h6.1zm0 12.1v-6l-36.5 36.5h6.1l29-29zm0 6.1-24.3 24.4h6l18.3-18.3zm0 12.1-12.2 12.3h6.1l6.1-6.2zM502 96.3l-.1.1h.1zm.1-48.6h-.1v.1zm48.5 48.6v.1z"/><path class="st3" d="m404.8 151.1 6.1-6.1h-6l-.1.1zm0 12.2 18.3-18.3H417l-12.2 12.2zm0 12.1 30.4-30.4h-6l-24.4 24.3zm0 12.2 42.6-42.6h-6.1l-36.5 36.5zm54.8-42.6h-6.1l-.1.1v-.1l-48.6 48.6h6.1zm12.1 0h-6L417 193.6h6zm12.2 0h-6.1l-48.7 48.6h6.1zm12.1 0h-6.1l-48.7 48.6h6.1zm12.2 0h-6.1l-48.7 48.6h6.1zm12.2 0h-6.1l-48.7 48.6h6.1l28.9-28.9zm12.1 0h-6.1l-48.7 48.6h6.1zm12.1 0h-6l-48.7 48.6h6zm6.1 6.1V145l-48.6 48.6h6.1zm0 12.1v-6.1l-36.5 36.5h6.1l29-28.9zm0 6.1-24.3 24.3h6l18.3-18.3zm0 12.1-12.2 12.2h6.1l6.1-6.1zM502 193.6z"/><path class="st3" d="M502.1 145h-.1v.1zm48.5 48.6z"/><path class="st5" d="m404.8 248.4 6.1-6.1h-6.1zm0 12.1 18.3-18.2H417l-12.2 12.2zm0 12.2 30.4-30.4h-6l-24.4 24.3zm0 12.1 42.6-42.5h-6.1l-36.5 36.5zm54.8-42.5h-6.2l-48.6 48.6h6.1zm12.1 0h-6L417 290.9h6zm12.2 0h-6.1l-48.7 48.6h6.1zm12.1 0h-6.1l-48.7 48.6h6.1zm12.2 0h-6.1l-48.7 48.6h6.1zm12.2 0h-6.1l-48.7 48.6h6.1l28.9-29zm12.1 0h-6.1l-48.7 48.6h6.1zm12.1 0h-6l-48.7 48.6h6zm6.1 6v-6l-48.6 48.6h6.1zm0 12.2v-6.1l-36.5 36.5h6.1l29-29zm0 6-24.3 24.4h6l18.3-18.3zm0 12.2-12.2 12.2h6.1l6.1-6.1zM502 290.8l-.1.1h.1zm.1-48.5h-.1zm48.5 48.5v.1z"/><path class="st4" d="m404.8 345.7 6.1-6.2h-6l-.1.1zm0 12.1 18.3-18.3H417l-12.2 12.2zm0 12.2 30.4-30.5h-6l-24.4 24.4zm0 12.1 42.6-42.6h-6.1L404.8 376zm54.8-42.6h-6.1l-.1.1v-.1l-48.6 48.7h6.1zm12.1 0h-6L417 388.2h6zm12.2 0h-6.1l-48.7 48.7h6.1zm12.1 0h-6.1l-48.7 48.7h6.1zm12.2 0h-6.1v.1-.1l-48.7 48.7h6.1zm12.2 0h-6.1l-48.7 48.7h6.1l28.9-29zm12.1 0h-6.1l-48.7 48.7h6.1zm12.1 0h-6l-48.7 48.7h6zm6.1 6.1v-6.1l-48.6 48.7h6.1zm0 12.2v-6.1l-36.5 36.5h6.1l29-29zm0 6-24.3 24.4h6l18.3-18.3zm0 12.2-12.2 12.2h6.1l6.1-6.2zM502 388.1l-.1.1h.1z"/><path class="st4" d="M502.1 339.5h-.1v.1zm48.5 48.6v.1z"/><path class="st6" d="m404.8 442.9 6.1-6.1h-6l-.1.1zm0 12.2 18.3-18.3H417L404.8 449zm0 12.1 30.4-30.4h-6l-24.4 24.4zm0 12.2 42.6-42.6h-6.1l-36.5 36.5zm54.8-42.6h-6.1l-.1.1v-.1l-48.6 48.6h6.1zm12.1 0h-6L417 485.4h6zm12.2 0h-6.1l-48.7 48.6h6.1zm12.1 0h-6.1l-48.7 48.6h6.1zm12.2 0h-6.1l-48.7 48.6h6.1zm12.2 0h-6.1l-48.7 48.6h6.1l28.9-28.9zm12.1 0h-6.1l-48.7 48.6h6.1zm12.1 0h-6l-48.7 48.6h6zm6.1 6.1v-6.1l-48.6 48.6h6.1zm0 12.1v-6l-36.5 36.4h6.1l29-28.9zm0 6.1-24.3 24.3h6l18.3-18.2zm0 12.1-12.2 12.2h6.1l6.1-6.1zM502 485.4z"/><path class="st6" d="M502.1 436.8h-.1v.1zm48.5 48.6zm-145.8 0h145.9v97.3H404.8z"/><path class="st1" d="m404.8 540.2 6.1-6.1h-6.1zm0 12.2 18.3-18.3H417l-12.2 12.2zm0 12.1 30.4-30.4h-6l-24.4 24.3zm0 12.1 42.6-42.5h-6.1l-36.5 36.5zm54.8-42.5h-6.2l-48.6 48.6h6.1zm12.1 0h-6L417 582.7h6zm12.2 0h-6.1l-48.7 48.6h6.1zm12.1 0h-6.1l-48.7 48.6h6.1zm12.2 0h-6.1l-48.7 48.6h6.1zm12.2 0h-6.1l-48.7 48.6h6.1l28.9-29zm12.1 0h-6.1l-48.7 48.6h6.1zm12.1 0h-6l-48.7 48.6h6zm6.1 6.1v-6.1l-48.6 48.6h6.1zm0 12.1v-6.1l-36.5 36.5h6.1l29-29zm0 6.1-24.3 24.3h6l18.3-18.3zm0 12.1-12.2 12.2h6.1l6.1-6.1zM502 582.7zm.1-48.6h-.1zm48.5 48.6zm-145.8 0h145.9v48.6H404.8z"/><path class="st2" d="M404.8 631.4h145.9v145.9H404.8z"/><path class="st3" d="M404.8 777.3h145.9v97.3H404.8z"/><path class="st4" d="M404.8 971.8h145.9v97.3H404.8z"/><path class="st5" d="M404.8 874.5h145.9v97.3H404.8z"/><path class="st1" d="m404.8 637.5 6.1-6.1h-6.1zm0 12.1 18.3-18.2H417l-12.2 12.2zm0 12.2 30.4-30.4h-6l-24.4 24.3zm0 12.1 42.6-42.5h-6.1l-36.5 36.4zm54.8-42.5h-6.2L404.8 680h6.1zm12.1 0h-6L417 680h6zm12.2 0h-6.1L429.1 680h6.1zm12.1 0h-6.1L441.2 680h6.1zm12.2 0h-6.1L453.4 680h6.1zm12.2 0h-6.1L465.6 680h6.1l28.9-29zm12.1 0h-6.1L477.7 680h6.1zm12.1 0h-6L489.9 680h6zm6.1 6v-6L502.1 680h6.1zm0 12.2v-6.1L514.2 680h6.1l29-29zm0 6L526.4 680h6l18.3-18.3zm0 12.2L538.5 680h6.1l6.1-6.1zM502 679.9l-.1.1h.1zm.1-48.5h-.1zm48.5 48.5v.1z"/><path class="st3" d="m404.8 734.8 6.1-6.2h-6l-.1.1zm0 12.1 18.3-18.3H417l-12.2 12.2zm0 12.2 30.4-30.5h-6L404.8 753zm0 12.1 42.6-42.6h-6.1l-36.5 36.5zm54.8-42.6h-6.1l-.1.1v-.1l-48.6 48.7h6.1zm12.1 0h-6L417 777.3h6zm12.2 0h-6.1l-48.7 48.7h6.1zm12.1 0h-6.1l-48.7 48.7h6.1zm12.2 0h-6.1v.1-.1l-48.7 48.7h6.1zm12.2 0h-6.1l-48.7 48.7h6.1l28.9-29zm12.1 0h-6.1l-48.7 48.7h6.1zm12.1 0h-6l-48.7 48.7h6zm6.1 6.1v-6.1l-48.6 48.7h6.1zm0 12.1v-6l-36.5 36.5h6.1l29-29zm0 6.1-24.3 24.4h6l18.3-18.3zm0 12.2-12.2 12.2h6.1l6.1-6.2zM502 777.2l-.1.1h.1zm.1-48.6h-.1v.1zm48.5 48.6v.1z"/><path class="st5" d="m404.8 832 6.1-6.1h-6l-.1.1zm0 12.2 18.3-18.3H417l-12.2 12.2zm0 12.1 30.4-30.4h-6l-24.4 24.4zm0 12.2 42.6-42.6h-6.1l-36.5 36.5zm54.8-42.6h-6.1l-.1.1v-.1l-48.6 48.6h6.1zm12.1 0h-6L417 874.5h6zm12.2 0h-6.1l-48.7 48.6h6.1zm12.1 0h-6.1l-48.7 48.6h6.1zm12.2 0h-6.1l-48.7 48.6h6.1zm12.2 0h-6.1l-48.7 48.6h6.1l28.9-28.9zm12.1 0h-6.1l-48.7 48.6h6.1zm12.1 0h-6l-48.7 48.6h6zm6.1 6.1v-6.1l-48.6 48.6h6.1zm0 12.1V838l-36.5 36.5h6.1l29-28.9zm0 6.1-24.3 24.3h6l18.3-18.2zm0 12.1-12.2 12.2h6.1l6.1-6.1zM502 874.5z"/><path class="st5" d="M502.1 825.9h-.1v.1zm48.5 48.6z"/><path class="st4" d="m404.8 929.3 6.1-6.1h-6.1zm0 12.2 18.3-18.3H417l-12.2 12.2zm0 12.1 30.4-30.4h-6l-24.4 24.3zm0 12.1 42.6-42.5h-6.1l-36.5 36.5zm54.8-42.5h-6.2l-48.6 48.6h6.1zm12.1 0h-6L417 971.8h6zm12.2 0h-6.1l-48.7 48.6h6.1zm12.1 0h-6.1l-48.7 48.6h6.1zm12.2 0h-6.1l-48.7 48.6h6.1zm12.2 0h-6.1l-48.7 48.6h6.1l28.9-29zm12.1 0h-6.1l-48.7 48.6h6.1zm12.1 0h-6l-48.7 48.6h6zm6.1 6v-6l-48.6 48.6h6.1zm0 12.2v-6.1l-36.5 36.5h6.1l29-29zm0 6.1-24.3 24.3h6l18.3-18.3zm0 12.1-12.2 12.2h6.1l6.1-6.1zM502 971.7l-.1.1h.1zm.1-48.5h-.1zm48.5 48.5v.1z"/><path class="st6" d="m404.8 1026.6 6.1-6.2h-6l-.1.1zm0 12.1 18.3-18.3H417l-12.2 12.3zm0 12.2 30.4-30.5h-6l-24.4 24.4zm0 12.1 42.6-42.6h-6.1l-36.5 36.5zm54.8-42.6h-6.1l-.1.1v-.1l-48.6 48.7h6.1zm12.1 0h-6l-48.7 48.7h6zm12.2 0h-6.1l-48.7 48.7h6.1zm12.1 0h-6.1l-48.7 48.7h6.1zm12.2 0h-6.1v.1-.1l-48.7 48.7h6.1zm12.2 0h-6.1l-48.7 48.7h6.1l28.9-29zm12.1 0h-6.1l-48.7 48.7h6.1zm12.1 0h-6l-48.7 48.7h6zm6.1 6.1v-6.1l-48.6 48.7h6.1zm0 12.2v-6.1l-36.5 36.5h6.1l29-29zm0 6-24.3 24.4h6l18.3-18.3zm0 12.2-12.2 12.2h6.1l6.1-6.1zM502 1069l-.1.1h.1z"/><path class="st6" d="M502.1 1020.4h-.1v.1zm48.5 48.6v.1zm-145.8.1h145.9v97.3H404.8z"/><path class="st1" d="m404.8 1123.9 6.1-6.2h-6l-.1.1zm0 12.1 18.3-18.3H417l-12.2 12.2zm0 12.1 30.4-30.4h-6l-24.4 24.4zm0 12.2 42.6-42.6h-6.1l-36.5 36.5zm54.8-42.6h-6.1l-.1.1v-.1l-48.6 48.7h6.1zm12.1 0h-6l-48.7 48.7h6zm12.2 0h-6.1l-48.7 48.7h6.1zm12.1 0h-6.1l-48.7 48.7h6.1zm12.2 0h-6.1v.1-.1l-48.7 48.7h6.1zm12.2 0h-6.1l-48.7 48.7h6.1l28.9-29zm12.1 0h-6.1l-48.7 48.7h6.1zm12.1 0h-6l-48.7 48.7h6zm6.1 6.1v-6.1l-48.6 48.7h6.1zm0 12.1v-6l-36.5 36.5h6.1l29-29zm0 6.1-24.3 24.4h6l18.3-18.3zm0 12.2-12.2 12.2h6.1l6.1-6.2zm-48.7 12.1-.1.1h.1zm.1-48.6h-.1v.1zm48.5 48.6v.1z"/></g><defs><path id="SVGID_11_" d="M0 0h1533.8v533.2H0z"/></defs><clipPath id="SVGID_12_"><use xlink:href="#SVGID_11_" style="overflow:visible"/></clipPath><g style="clip-path:url(#SVGID_12_)"><path class="st1" d="M1227-49.6h145.9v97.3H1227z"/><path class="st2" d="M1227 47.7h145.9v145.9H1227z"/><path class="st3" d="M1227 193.6h145.9v97.3H1227z"/><path class="st4" d="M1227 388.2h145.9v97.3H1227z"/><path class="st5" d="M1227 290.9h145.9v97.3H1227z"/><path class="st6" d="m1227-43.4 6.2-6.2h-6.1l-.1.1zm0 12.1 18.3-18.3h-6.1L1227-37.3zm0 12.2 30.4-30.5h-6L1227-25.2zm0 12.1 42.6-42.6h-6.1L1227-13.1zm54.8-42.6h-6.1v.1-.1L1227-.9h6.1zm12.1 0h-6L1239.2-.9h6zm12.2 0h-6.1L1251.3-.9h6.1zm12.1 0h-6L1263.4-.9h6.1zm12.2 0h-6l-.1.1v-.1L1275.7-.9h6zm12.2 0h-6.1L1287.8-.9h6.1l28.9-29zm12.1 0h-6.1L1299.9-.9h6.1zm12.2 0h-6.1L1312.1-.9h6.1zm6 6.1v-6.1L1324.3-.9h6.1zm0 12.2v-6.1L1336.4-.9h6.1l29-29zm0 6L1348.6-.9h6.1l18.2-18.3zm0 12.2L1360.7-.9h6.1l6.1-6.2zM1324.2-1l-.1.1h.1zm.1-48.6h-.1v.1zM1372.8-1v.1z"/><path class="st1" d="m1227 53.9 6.2-6.2h-6.1l-.1.1zm0 12.1 18.3-18.3h-6.1L1227 59.9zm0 12.1 30.4-30.4h-6L1227 72.1zm0 12.2 42.6-42.6h-6.1L1227 84.2zm54.8-42.6h-6.1v.1-.1L1227 96.4h6.1zm12.1 0h-6l-48.7 48.7h6zm12.2 0h-6.1l-48.7 48.7h6.1zm12.1 0h-6l-48.8 48.7h6.1zm12.2 0h-6l-.1.1v-.1l-48.6 48.7h6zm12.2 0h-6.1l-48.7 48.7h6.1l28.9-29zm12.1 0h-6.1l-48.7 48.7h6.1zm12.2 0h-6.1l-48.7 48.7h6.1zm6 6.1v-6.1l-48.6 48.7h6.1zm0 12.1v-6l-36.5 36.5h6.1l29-29zm0 6.1-24.3 24.4h6.1l18.2-18.3zm0 12.1-12.2 12.3h6.1l6.1-6.2zm-48.7 12.2-.1.1h.1zm.1-48.6h-.1v.1zm48.5 48.6v.1z"/><path class="st3" d="m1227 151.1 6.2-6.1h-6.1l-.1.1zm0 12.2 18.3-18.3h-6.1l-12.2 12.2zm0 12.1 30.4-30.4h-6l-24.4 24.3zm0 12.2 42.6-42.6h-6.1l-36.5 36.5zm54.8-42.6h-6.1v.1-.1l-48.7 48.6h6.1zm12.1 0h-6l-48.7 48.6h6zm12.2 0h-6.1l-48.7 48.6h6.1zm12.1 0h-6l-48.8 48.6h6.1zm12.2 0h-6.1l-48.6 48.6h6zm12.2 0h-6.1l-48.7 48.6h6.1l28.9-28.9zm12.1 0h-6.1l-48.7 48.6h6.1zm12.2 0h-6.1l-48.7 48.6h6.1zm6 6.1V145l-48.6 48.6h6.1zm0 12.1v-6.1l-36.5 36.5h6.1l29-28.9zm0 6.1-24.3 24.3h6.1l18.2-18.3zm0 12.1-12.2 12.2h6.1l6.1-6.1zm-48.7 12.2zm.1-48.6h-.1v.1zm48.5 48.6z"/><path class="st5" d="m1227 248.4 6.2-6.1h-6.2zm0 12.1 18.3-18.2h-6.1l-12.2 12.2zm0 12.2 30.4-30.4h-6l-24.4 24.3zm0 12.1 42.6-42.5h-6.1l-36.5 36.5zm54.8-42.5h-6.1l-48.7 48.6h6.1zm12.1 0h-6l-48.7 48.6h6zm12.2 0h-6.1l-48.7 48.6h6.1zm12.1 0h-6l-48.8 48.6h6.1zm12.2 0h-6.1l-48.6 48.6h6zm12.2 0h-6.1l-48.7 48.6h6.1l28.9-29zm12.1 0h-6.1l-48.7 48.6h6.1zm12.2 0h-6.1l-48.7 48.6h6.1zm6 6v-6l-48.6 48.6h6.1zm0 12.2v-6.1l-36.5 36.5h6.1l29-29zm0 6-24.3 24.4h6.1l18.2-18.3zm0 12.2-12.2 12.2h6.1l6.1-6.1zm-48.7 12.1-.1.1h.1zm.1-48.5h-.1zm48.5 48.5v.1z"/><path class="st4" d="m1227 345.7 6.2-6.2h-6.1l-.1.1zm0 12.1 18.3-18.3h-6.1l-12.2 12.2zm0 12.2 30.4-30.5h-6l-24.4 24.4zm0 12.1 42.6-42.6h-6.1L1227 376zm54.8-42.6h-6.1v.1-.1l-48.7 48.7h6.1zm12.1 0h-6l-48.7 48.7h6zm12.2 0h-6.1l-48.7 48.7h6.1zm12.1 0h-6l-48.8 48.7h6.1zm12.2 0h-6l-.1.1v-.1l-48.6 48.7h6zm12.2 0h-6.1l-48.7 48.7h6.1l28.9-29zm12.1 0h-6.1l-48.7 48.7h6.1zm12.2 0h-6.1l-48.7 48.7h6.1zm6 6.1v-6.1l-48.6 48.7h6.1zm0 12.2v-6.1l-36.5 36.5h6.1l29-29zm0 6-24.3 24.4h6.1l18.2-18.3zm0 12.2-12.2 12.2h6.1l6.1-6.2zm-48.7 12.1-.1.1h.1zm.1-48.6h-.1v.1zm48.5 48.6v.1z"/><path class="st6" d="m1227 442.9 6.2-6.1h-6.1l-.1.1zm0 12.2 18.3-18.3h-6.1L1227 449zm0 12.1 30.4-30.4h-6l-24.4 24.4zm0 12.2 42.6-42.6h-6.1l-36.5 36.5zm54.8-42.6h-6.1v.1-.1l-48.7 48.6h6.1zm12.1 0h-6l-48.7 48.6h6zm12.2 0h-6.1l-48.7 48.6h6.1zm12.1 0h-6l-48.8 48.6h6.1zm12.2 0h-6.1l-48.6 48.6h6zm12.2 0h-6.1l-48.7 48.6h6.1l28.9-28.9zm12.1 0h-6.1l-48.7 48.6h6.1zm12.2 0h-6.1l-48.7 48.6h6.1zm6 6.1v-6.1l-48.6 48.6h6.1zm0 12.1v-6l-36.5 36.4h6.1l29-28.9zm0 6.1-24.3 24.3h6.1l18.2-18.2zm0 12.1-12.2 12.2h6.1l6.1-6.1zm-48.7 12.2zm.1-48.6h-.1v.1zm48.5 48.6z"/><path class="st6" d="M1227 485.4h145.9v97.3H1227z"/><path class="st1" d="m1227 540.2 6.2-6.1h-6.2zm0 12.2 18.3-18.3h-6.1l-12.2 12.2zm0 12.1 30.4-30.4h-6l-24.4 24.3zm0 12.1 42.6-42.5h-6.1l-36.5 36.5zm54.8-42.5h-6.1l-48.7 48.6h6.1zm12.1 0h-6l-48.7 48.6h6zm12.2 0h-6.1l-48.7 48.6h6.1zm12.1 0h-6l-48.8 48.6h6.1zm12.2 0h-6.1l-48.6 48.6h6zm12.2 0h-6.1l-48.7 48.6h6.1l28.9-29zm12.1 0h-6.1l-48.7 48.6h6.1zm12.2 0h-6.1l-48.7 48.6h6.1zm6 6.1v-6.1l-48.6 48.6h6.1zm0 12.1v-6.1l-36.5 36.5h6.1l29-29zm0 6.1-24.3 24.3h6.1l18.2-18.3zm0 12.1-12.2 12.2h6.1l6.1-6.1zm-48.7 12.2zm.1-48.6h-.1zm48.5 48.6zm-145.8 0h145.9v48.6H1227z"/><path class="st2" d="M1227 631.4h145.9v145.9H1227z"/><path class="st3" d="M1227 777.3h145.9v97.3H1227z"/><path class="st4" d="M1227 971.8h145.9v97.3H1227z"/><path class="st5" d="M1227 874.5h145.9v97.3H1227z"/><path class="st1" d="m1227 637.5 6.2-6.1h-6.2zm0 12.1 18.3-18.2h-6.1l-12.2 12.2zm0 12.2 30.4-30.4h-6l-24.4 24.3zm0 12.1 42.6-42.5h-6.1l-36.5 36.4zm54.8-42.5h-6.1L1227 680h6.1zm12.1 0h-6l-48.7 48.6h6zm12.2 0h-6.1l-48.7 48.6h6.1zm12.1 0h-6l-48.8 48.6h6.1zm12.2 0h-6.1l-48.6 48.6h6zm12.2 0h-6.1l-48.7 48.6h6.1l28.9-29zm12.1 0h-6.1l-48.7 48.6h6.1zm12.2 0h-6.1l-48.7 48.6h6.1zm6 6v-6l-48.6 48.6h6.1zm0 12.2v-6.1l-36.5 36.5h6.1l29-29zm0 6-24.3 24.4h6.1l18.2-18.3zm0 12.2-12.2 12.2h6.1l6.1-6.1zm-48.7 12.1-.1.1h.1zm.1-48.5h-.1zm48.5 48.5v.1z"/><path class="st3" d="m1227 734.8 6.2-6.2h-6.1l-.1.1zm0 12.1 18.3-18.3h-6.1l-12.2 12.2zm0 12.2 30.4-30.5h-6L1227 753zm0 12.1 42.6-42.6h-6.1l-36.5 36.5zm54.8-42.6h-6.1v.1-.1l-48.7 48.7h6.1zm12.1 0h-6l-48.7 48.7h6zm12.2 0h-6.1l-48.7 48.7h6.1zm12.1 0h-6l-48.8 48.7h6.1zm12.2 0h-6l-.1.1v-.1l-48.6 48.7h6zm12.2 0h-6.1l-48.7 48.7h6.1l28.9-29zm12.1 0h-6.1l-48.7 48.7h6.1zm12.2 0h-6.1l-48.7 48.7h6.1zm6 6.1v-6.1l-48.6 48.7h6.1zm0 12.1v-6l-36.5 36.5h6.1l29-29zm0 6.1-24.3 24.4h6.1l18.2-18.3zm0 12.2-12.2 12.2h6.1l6.1-6.2zm-48.7 12.1-.1.1h.1zm.1-48.6h-.1v.1zm48.5 48.6v.1z"/><path class="st5" d="m1227 832 6.2-6.1h-6.1l-.1.1zm0 12.2 18.3-18.3h-6.1l-12.2 12.2zm0 12.1 30.4-30.4h-6l-24.4 24.4zm0 12.2 42.6-42.6h-6.1l-36.5 36.5zm54.8-42.6h-6.1v.1-.1l-48.7 48.6h6.1zm12.1 0h-6l-48.7 48.6h6zm12.2 0h-6.1l-48.7 48.6h6.1zm12.1 0h-6l-48.8 48.6h6.1zm12.2 0h-6.1l-48.6 48.6h6zm12.2 0h-6.1l-48.7 48.6h6.1l28.9-28.9zm12.1 0h-6.1l-48.7 48.6h6.1zm12.2 0h-6.1l-48.7 48.6h6.1zm6 6.1v-6.1l-48.6 48.6h6.1zm0 12.1V838l-36.5 36.5h6.1l29-28.9zm0 6.1-24.3 24.3h6.1l18.2-18.2zm0 12.1-12.2 12.2h6.1l6.1-6.1zm-48.7 12.2zm.1-48.6h-.1v.1zm48.5 48.6z"/><path class="st4" d="m1227 929.3 6.2-6.1h-6.2zm0 12.2 18.3-18.3h-6.1l-12.2 12.2zm0 12.1 30.4-30.4h-6l-24.4 24.3zm0 12.1 42.6-42.5h-6.1l-36.5 36.5zm54.8-42.5h-6.1l-48.7 48.6h6.1zm12.1 0h-6l-48.7 48.6h6zm12.2 0h-6.1l-48.7 48.6h6.1zm12.1 0h-6l-48.8 48.6h6.1zm12.2 0h-6.1l-48.6 48.6h6zm12.2 0h-6.1l-48.7 48.6h6.1l28.9-29zm12.1 0h-6.1l-48.7 48.6h6.1zm12.2 0h-6.1l-48.7 48.6h6.1zm6 6v-6l-48.6 48.6h6.1zm0 12.2v-6.1l-36.5 36.5h6.1l29-29zm0 6.1-24.3 24.3h6.1l18.2-18.3zm0 12.1-12.2 12.2h6.1l6.1-6.1zm-48.7 12.1-.1.1h.1zm.1-48.5h-.1zm48.5 48.5v.1z"/><path class="st6" d="m1227 1026.6 6.2-6.2h-6.1l-.1.1zm0 12.1 18.3-18.3h-6.1l-12.2 12.3zm0 12.2 30.4-30.5h-6l-24.4 24.4zm0 12.1 42.6-42.6h-6.1l-36.5 36.5zm54.8-42.6h-6.1v.1-.1l-48.7 48.7h6.1zm12.1 0h-6l-48.7 48.7h6zm12.2 0h-6.1l-48.7 48.7h6.1zm12.1 0h-6l-48.8 48.7h6.1zm12.2 0h-6l-.1.1v-.1l-48.6 48.7h6zm12.2 0h-6.1l-48.7 48.7h6.1l28.9-29zm12.1 0h-6.1l-48.7 48.7h6.1zm12.2 0h-6.1l-48.7 48.7h6.1zm6 6.1v-6.1l-48.6 48.7h6.1zm0 12.2v-6.1l-36.5 36.5h6.1l29-29zm0 6-24.3 24.4h6.1l18.2-18.3zm0 12.2-12.2 12.2h6.1l6.1-6.1zm-48.7 12.1-.1.1h.1zm.1-48.6h-.1v.1zm48.5 48.6v.1zm-145.8.1h145.9v97.3H1227z"/><path class="st1" d="m1227 1123.9 6.2-6.2h-6.1l-.1.1zm0 12.1 18.3-18.3h-6.1l-12.2 12.2zm0 12.1 30.4-30.4h-6l-24.4 24.4zm0 12.2 42.6-42.6h-6.1l-36.5 36.5zm54.8-42.6h-6.1v.1-.1l-48.7 48.7h6.1zm12.1 0h-6l-48.7 48.7h6zm12.2 0h-6.1l-48.7 48.7h6.1zm12.1 0h-6l-48.8 48.7h6.1zm12.2 0h-6l-.1.1v-.1l-48.6 48.7h6zm12.2 0h-6.1l-48.7 48.7h6.1l28.9-29zm12.1 0h-6.1l-48.7 48.7h6.1zm12.2 0h-6.1l-48.7 48.7h6.1zm6 6.1v-6.1l-48.6 48.7h6.1zm0 12.1v-6l-36.5 36.5h6.1l29-29zm0 6.1-24.3 24.4h6.1l18.2-18.3zm0 12.2-12.2 12.2h6.1l6.1-6.2zm-48.7 12.1-.1.1h.1zm.1-48.6h-.1v.1zm48.5 48.6v.1z"/></g><defs><path id="SVGID_13_" d="M0 0h1533.8v533.2H0z"/></defs><clipPath id="SVGID_14_"><use xlink:href="#SVGID_13_" style="overflow:visible"/></clipPath><g style="clip-path:url(#SVGID_14_)"><path class="st13" d="M551-193.4h96.6V-.2H551z"/><path class="st14" d="M551-.1h96.6v96.6H551zm36.1 0 57.5-57.6zm-36-96.6h-.1v.1zM582.9-20l64.6-64.6z"/><path class="st14" d="m551-84.5 12.1-12.2h-12l-.1.1zm0 24.1 36.3-36.3h-12.1L551-72.5zm0 24.1 60.4-60.4h-12.1L551-48.4zm0 24.1 84.5-84.5zm0 0 84.5-84.5h-12.1L551-24.3zM563-.1 582.9-20zm84.5-84.5v-12.1L551-.1h12z"/><path class="st14" d="M647.5-84.6 563-.1 582.9-20zm-2.9 26.9 2.9-2.8zm2.9-2.8v-12.1L575.1-.1h12l57.5-57.6zm0 12L599.2-.1h12l36.3-36.3zm0 24.1L623.3-.1h12l12.2-12.2zm0 24.1-.1.2h.1z"/><path class="st15" d="M551 96.5h96.6v289.8H551z"/><path class="st14" d="m587.1 193 57.5-57.5zm-36-96.5h-.1v.1zm31.8 76.6 64.6-64.6z"/><path class="st14" d="m551 108.6 12.1-12.1h-12l-.1.1zm0 24.1 36.3-36.2h-12.1L551 120.7zm0 24.1 60.4-60.3h-12.1L551 144.8zm0 24.1 84.5-84.5zm0 0 84.5-84.4h-12.1L551 168.9zm12 12.1 19.9-19.9zm84.5-84.5v-12L551 193h12z"/><path class="st14" d="M647.5 108.5 563 193l19.9-19.9zm-2.9 27 2.9-2.9zm2.9-2.9v-12L575.1 193h12l57.5-57.5zm0 12.1L599.2 193h12l36.3-36.3zm0 24.1L623.3 193h12l12.2-12.2zm0 24.1-.1.1h.1z"/><path class="st16" d="m587.1 386.1 57.5-57.5zm-36-96.6h-.1v.2zm31.8 76.7 64.6-64.6z"/><path class="st16" d="m551 301.7 12.1-12.2h-12l-.1.2zm0 24.1 36.3-36.3h-12.1L551 313.8zm0 24.1 60.4-60.4h-12.1L551 337.9zm0 24.1 84.5-84.5zm0 0 84.5-84.5h-12.1L551 362zm12 12.1 19.9-19.9zm84.5-84.5v-12.1L551 386.1h12zm0 0L563 386.1l19.9-19.9zm-2.9 27 2.9-2.9zm2.9-2.9v-12.1l-72.4 72.5h12l57.5-57.5zm0 12-48.3 48.4h12l36.3-36.3zm0 24.1-24.2 24.3h12l12.2-12.2zm0 24.1-.1.2h.1z"/><path class="st13" d="M551 482.5h96.6v193.2H551z"/><path class="st14" d="M551 675.6h96.6v96.6H551zm36.1.1 57.5-57.5zm-36-96.5h-.1v.1zm31.8 76.6 64.6-64.6z"/><path class="st14" d="m551 591.4 12.1-12.2h-12l-.1.1zm0 24.1 36.3-36.3h-12.1L551 603.4zm0 24.1 60.4-60.4h-12.1L551 627.5zm0 24 84.5-84.5zm0 .1 84.5-84.5h-12.1L551 651.6zm12 12 19.9-19.9zm84.5-84.5v-12L551 675.7h12zm0 0L563 675.7l19.9-19.9zm-2.9 27 2.9-2.9zm2.9-2.9v-12l-72.4 72.4h12l57.5-57.5zm0 12.1-48.3 48.3h12l36.3-36.3zm0 24.1-24.2 24.2h12l12.2-12.2zm0 24.1-.1.1h.1z"/><path class="st15" d="M551 772.2h96.6V1062H551z"/><path class="st14" d="m587.2 868.7 57.5-57.5zm-36-96.5h-.2v.1zm31.8 76.6 64.6-64.5v-.1z"/><path class="st14" d="m551 784.4 12.2-12.2h-12l-.2.1zm0 24.1 36.3-36.3h-12L551 796.4zm0 24.1 60.4-60.4h-12L551 820.5zm0 24.1 84.5-84.5zm0 0 84.5-84.5h-12L551 844.6zm12.1 12 19.9-19.9zm84.5-84.5v-12L551 868.7h12.1zm0 0-84.5 84.5 19.9-19.9zm-2.9 27 2.9-2.8zm2.9-2.8v-12.1l-72.5 72.4h12.1l57.5-57.5zm0 12-48.4 48.3h12.1l36.3-36.2zm0 24.1-24.3 24.2h12.1l12.2-12.1zm0 24.1-.2.1h.2z"/><path class="st16" d="m587.1 1061.7 57.5-57.5zm-36-96.5h-.1v.1zm31.8 76.6 64.6-64.6z"/><path class="st16" d="m551 977.3 12.1-12.1h-12l-.1.1zm0 24.1 36.3-36.2h-12.1L551 989.4zm0 24.1 60.4-60.3h-12.1l-48.3 48.3zm0 24.1 84.5-84.5zm0 0 84.5-84.4h-12.1l-72.4 72.4zm12 12.1 19.9-19.9zm84.5-84.5v-12l-96.5 96.5h12z"/><path class="st16" d="m647.5 977.2-84.5 84.5 19.9-19.9zm-2.9 27 2.9-2.9zm2.9-2.9v-12l-72.4 72.4h12l57.5-57.5zm0 12.1-48.3 48.3h12l36.3-36.3zm0 24.1-24.2 24.2h12l12.2-12.2zm0 24.1-.1.1h.1zm-96.5.1h96.6v96.6H551zm0-675.8h96.6v96.6H551z"/></g><defs><path id="SVGID_15_" d="M0 0h1533.8v533.2H0z"/></defs><clipPath id="SVGID_16_"><use xlink:href="#SVGID_15_" style="overflow:visible"/></clipPath><g style="clip-path:url(#SVGID_16_)"><path class="st13" d="M1241-489.5h96.6v193.2H1241z"/><path class="st14" d="M1241-296.3h96.6v96.6H1241zm36.2 0 57.5-57.5zm-36-96.5h-.2v.1zm31.8 76.6 64.6-64.6z"/><path class="st14" d="m1241-380.7 12.2-12.1h-12l-.2.1zm0 24.1 36.3-36.2h-12l-24.3 24.2zm0 24.1 60.4-60.3h-12l-48.4 48.3zm0 24.2 84.5-84.5zm0-.1 84.5-84.4h-12l-72.5 72.4zm12.1 12.1 19.9-19.9zm84.5-84.5v-12l-96.6 96.5h12.1z"/><path class="st14" d="m1337.6-380.8-84.5 84.5 19.9-19.9zm-2.9 27 2.9-2.9zm2.9-2.9v-12l-72.5 72.4h12.1l57.5-57.5zm0 12.1-48.4 48.3h12.1l36.3-36.3zm0 24.1-24.3 24.2h12.1l12.2-12.2zm0 24.1-.2.1h.2z"/><path class="st15" d="M1241-199.7h96.6V90.1H1241z"/><path class="st14" d="m1277.2-103.2 57.5-57.5zm-36-96.5h-.2v.1zM1273-123l64.6-64.6z"/><path class="st14" d="m1241-187.5 12.2-12.2h-12l-.2.1zm0 24.1 36.3-36.3h-12l-24.3 24.2zm0 24.1 60.4-60.4h-12l-48.4 48.3zm0 24.1 84.5-84.5zm0 0 84.5-84.5h-12l-72.5 72.4zm12.1 12L1273-123zm84.5-84.4v-12.1l-96.6 96.5h12.1zm0 0-84.5 84.4L1273-123zm-2.9 26.9 2.9-2.8zm2.9-2.8v-12.1l-72.5 72.4h12.1l57.5-57.5zm0 12-48.4 48.3h12.1l36.3-36.2zm0 24.1-24.3 24.2h12.1l12.2-12.1zm0 24.1-.2.1h.2z"/><path class="st16" d="m1277.2 89.9 57.5-57.5zm-36-96.5h-.2v.1zM1273 70l64.6-64.6z"/><path class="st16" d="m1241 5.6 12.2-12.2h-12l-.2.1zm0 24.1 36.3-36.3h-12L1241 17.6zm0 24.1 60.4-60.4h-12L1241 41.7zm0 24.1 84.5-84.5zm0 0 84.5-84.5h-12L1241 65.8zm12.1 12L1273 70zm84.5-84.5v-12L1241 89.9h12.1z"/><path class="st16" d="m1337.6 5.4-84.5 84.5L1273 70zm-2.9 27 2.9-2.9zm2.9-2.9v-12l-72.5 72.4h12.1l57.5-57.5zm0 12.1-48.4 48.3h12.1l36.3-36.3zm0 24.1-24.3 24.2h12.1l12.2-12.2zm0 24.1-.2.1h.2z"/><path class="st13" d="M1241 186.3h96.6v193.2H1241z"/><path class="st14" d="M1241 379.4h96.6V476H1241zm36.2.2 57.5-57.5zm-36-96.6h-.2v.2zm31.8 76.7 64.6-64.6z"/><path class="st14" d="m1241 295.2 12.2-12.2h-12l-.2.2zm0 24.1 36.3-36.3h-12l-24.3 24.3zm0 24.1 60.4-60.4h-12l-48.4 48.4zm0 24.2 84.5-84.5zm0-.1 84.5-84.5h-12l-72.5 72.5zm12.1 12.1 19.9-19.9zm84.5-84.5V283l-96.6 96.6h12.1z"/><path class="st14" d="m1337.6 295.1-84.5 84.5 19.9-19.9zm-2.9 27 2.9-2.9zm2.9-2.9v-12.1l-72.5 72.5h12.1l57.5-57.5zm0 12-48.4 48.4h12.1l36.3-36.3zm0 24.1-24.3 24.3h12.1l12.2-12.2zm0 24.1-.2.2h.2z"/><path class="st15" d="M1241 476h96.6v289.8H1241z"/><path class="st14" d="m1277.2 572.6 57.6-57.5zm-36-96.6h-.1v.2zm31.8 76.7 64.6-64.6z"/><path class="st14" d="m1241.1 488.2 12.2-12.2h-12.1l-.1.2zm0 24.1 36.3-36.3h-12.1l-24.2 24.3zm0 24.1 60.4-60.4h-12.1l-48.3 48.4zm0 24.1 84.5-84.5zm0 0 84.5-84.5h-12.1l-72.4 72.5zm12 12.1 19.9-19.9zm84.5-84.5V476l-96.5 96.6h12z"/><path class="st14" d="m1337.6 488.1-84.5 84.5 19.9-19.9zm-2.8 27 2.8-2.9zm2.8-2.9v-12l-72.4 72.4h12l57.6-57.5zm0 12.1-48.3 48.3h12l36.3-36.3zm0 24.1-24.2 24.2h12.1l12.1-12.2zm0 24.1-.1.1h.1z"/><path class="st16" d="m1277.2 765.5 57.5-57.5zm-36-96.5h-.2v.1zm31.8 76.7 64.6-64.6z"/><path class="st16" d="m1241 681.2 12.2-12.2h-12l-.2.1zm0 24.1 36.3-36.3h-12l-24.3 24.2zm0 24.1 60.4-60.4h-12l-48.4 48.3zm0 24.1 84.5-84.5zm0 0 84.5-84.5h-12l-72.5 72.4zm12.1 12 19.9-19.8zm84.5-84.4V669l-96.6 96.5h12.1z"/><path class="st16" d="m1337.6 681.1-84.5 84.4 19.9-19.8zm-2.9 26.9 2.9-2.8zm2.9-2.8v-12.1l-72.5 72.4h12.1l57.5-57.5zm0 12-48.4 48.3h12.1l36.3-36.2zm0 24.1-24.3 24.2h12.1l12.2-12.1zm0 24.1-.2.1h.2zm-96.6.1h96.6v96.6H1241zm0-675.8h96.6v96.6H1241z"/></g><defs><path id="SVGID_17_" d="M0 0h1533.8v533.2H0z"/></defs><clipPath id="SVGID_18_"><use xlink:href="#SVGID_17_" style="overflow:visible"/></clipPath><g style="clip-path:url(#SVGID_18_)"><path class="st19" d="M1037.2-99.3H793.3"/><path class="st3" d="M793.3-99.3h30.4"/><path class="st19" d="M854.2-99.3h30.4m30.5 0h30.4m30.5 0h30.5"/><path class="st6" d="M793.3-99.3h243.9V389H793.3z"/><path class="st1" d="M793.3 388.9h243.9v243.9H793.3zm0-213.1 30.8-30.8h-30.5l-.3.3zm0 60.9L885 145h-30.5l-61.2 61.2zm0 60.9L945.9 145h-30.5L793.3 267.1zm0 60.9L1006.8 145h-30.5l-183 183z"/><path class="st1" d="M1037.2 175.4V145L793.3 388.9h30.4zm0 60.9v-30.4l-183 183h30.4L1030 243.6zm0 30.5L915.1 388.9h30.4l91.7-91.7zm0 60.9L976 388.9h30.5l30.7-30.7z"/></g><defs><path id="SVGID_19_" d="M0 0h1533.8v533.2H0z"/></defs><clipPath id="SVGID_20_"><use xlink:href="#SVGID_19_" style="overflow:visible"/></clipPath><g style="clip-path:url(#SVGID_20_)"><path class="st19" d="M1037.2 626.9H793.3"/><path class="st3" d="M793.3 626.9h30.4"/><path class="st19" d="M854.2 626.9h30.4m30.5 0h30.4m30.5 0h30.5"/><path class="st6" d="M793.3 626.9h243.9v488.3H793.3z"/><path class="st1" d="M793.3 1115.2h243.9v243.9H793.3zm0-213.2 30.8-30.7h-30.5l-.3.3zm0 60.9 91.7-91.6h-30.5l-61.2 61.2zm0 60.9 152.6-152.5h-30.5L793.3 993.4zm0 60.9 213.5-213.4h-30.5l-183 183z"/><path class="st1" d="M1037.2 901.7v-30.4l-243.9 243.9h30.4zm0 60.9v-30.4l-183 183h30.4L1030 969.9zm0 30.5-122.1 122.1h30.4l91.7-91.7zm0 60.9-61.2 61.2h30.5l30.7-30.8z"/></g><defs><path id="SVGID_21_" d="M0 0h1533.8v533.2H0z"/></defs><clipPath id="SVGID_22_"><use xlink:href="#SVGID_21_" style="overflow:visible"/></clipPath><g style="clip-path:url(#SVGID_22_)"><path class="st15" d="M1087.4-224h153.1v459.3h-153.1z"/><path class="st16" d="M1087.4 235.3h153.1v306.2h-153.1z"/><path class="st14" d="m1087.4-204.7 19.3-19.3h-19.1l-.2.2zm0 38.3 57.5-57.6h-19.1l-38.4 38.4zm0 38.2 95.8-95.8H1164l-76.6 76.7zm0 38.2 134-134h-19.1l-114.9 114.9zm153.1-114.9V-224L1087.4-70.9h19.1zm0 38.3v-19.2L1125.6-70.9h19.1l91.2-91.2zm0 19.1-76.7 76.6h19.2l57.5-57.5zm0 38.2-38.4 38.4h19.1l19.3-19.3z"/><path class="st22" d="m1087.4 407.7 19.3-19.3h-19.1l-.2.2zm0 38.2 57.5-57.5h-19.1l-38.4 38.4zm0 38.2 95.8-95.7H1164l-76.6 76.6zm0 38.2 134-133.9h-19.1l-114.9 114.8zm153.1-114.8v-19.1l-153.1 153.1h19.1zm0 38.2v-19.1l-114.9 114.9h19.1l91.2-91.2zm0 19.1-76.7 76.7h19.2l57.5-57.6zm0 38.2-38.4 38.5h19.1l19.3-19.4z"/><path class="st16" d="m1087.4 101.5 19.3-19.3h-19.1l-.2.2zm0 38.2 57.5-57.5h-19.1l-38.4 38.4zm0 38.2 95.8-95.7H1164l-76.6 76.6zm0 38.3 134-134h-19.1l-114.9 114.9zm153.1-114.9V82.2l-153.1 153.1h19.1zm0 38.2v-19.1l-114.9 114.9h19.1l91.2-91.2zm0 19.1-76.7 76.7h19.2l57.5-57.6zm0 38.3-38.4 38.4h19.1l19.3-19.3z"/><path class="st15" d="M1087.4 541.5h153.1v459.7h-153.1z"/><path class="st16" d="M1087.4 848h153.1v306.2h-153.1z"/><path class="st14" d="m1087.4 714.3 19.3-19.3h-19.1l-.2.2zm0 38.2 57.5-57.5h-19.1l-38.4 38.4zm0 38.2 95.8-95.7H1164l-76.6 76.6zm0 38.2 134-133.9h-19.1l-114.9 114.8zm153.1-114.8V695l-153.1 153h19.1zm0 38.2v-19.1L1125.6 848h19.1l91.2-91.2zm0 19.1-76.7 76.6h19.2l57.5-57.5zm0 38.2-38.4 38.4h19.1l19.3-19.3z"/><path class="st22" d="m1087.4 1020.4 19.3-19.3h-19.1l-.2.2zm0 38.3 57.5-57.6h-19.1l-38.4 38.5zm0 38.2 95.8-95.8H1164l-76.6 76.7zm0 38.2 134-134h-19.1L1087.4 1116zm153.1-114.9v-19.1l-153.1 153.1h19.1zm0 38.3v-19.1l-114.9 114.8h19.1l91.2-91.2zm0 19.1-76.7 76.6h19.2l57.5-57.5zm0 38.2-38.4 38.4h19.1l19.3-19.3z"/></g><defs><path id="SVGID_23_" d="M0 0h1533.8v533.2H0z"/></defs><clipPath id="SVGID_24_"><use xlink:href="#SVGID_23_" style="overflow:visible"/></clipPath><g style="clip-path:url(#SVGID_24_)"><path class="st2" d="M295.5-202.2h197.8v593.5H295.5z"/><path class="st1" d="m295.5-177.2 24.9-25h-24.7l-.2.3zm0 49.4 74.3-74.4h-24.7l-49.6 49.7zm0 49.4 123.7-123.8h-24.7l-99 99.1zm0 49.4 173.1-173.2h-24.7L295.5-53.7zm197.8-148.5v-24.7L295.5-4.4h24.6zm0 49.4v-24.7L344.8-4.4h24.7l117.9-117.8zm0 24.7-99.1 99h24.7l74.4-74.3zm0 49.4L443.6-4.4h24.7l25-24.9z"/><path class="st3" d="m295.5 218.4 24.9-24.9h-24.7l-.2.2zm0 49.4 74.3-74.3h-24.7l-49.6 49.6zm0 49.4 123.7-123.7h-24.7l-99 99zm0 49.4 173.1-173.1h-24.7L295.5 341.9zm197.8-148.4v-24.7L295.5 391.3h24.6zm0 49.3v-24.6L344.8 391.3h24.7l117.9-117.9zm0 24.7-99.1 99.1h24.7l74.4-74.4zm0 49.4-49.7 49.7h24.7l25-25z"/><path class="st2" d="M295.5 391.3h197.8v396H295.5z"/><path class="st1" d="M295.5 787.2h197.8V985H295.5zm0-172.8 24.9-25h-24.7l-.2.3zm0 49.4 74.3-74.4h-24.7l-49.6 49.7zm0 49.4 123.7-123.8h-24.7l-99 99.1zm0 49.3 173.1-173.1h-24.7L295.5 737.9z"/><path class="st1" d="M493.3 614.1v-24.7L295.5 787.2h24.6zm0 49.4v-24.7L344.8 787.2h24.7l117.9-117.8zm0 24.7-99.1 99h24.7l74.4-74.3zm0 49.4-49.7 49.6h24.7l25-24.9z"/></g><defs><path id="SVGID_25_" d="M0 0h1533.8v533.2H0z"/></defs><clipPath id="SVGID_26_"><use xlink:href="#SVGID_25_" style="overflow:visible"/></clipPath><g style="clip-path:url(#SVGID_26_)"><path class="st2" d="M1370.2-202.2H1568v593.5h-197.8z"/><path class="st1" d="m1370.2-177.2 25-25h-24.7l-.3.3zm0 49.4 74.4-74.4h-24.7l-49.7 49.7zm0 49.4L1494-202.2h-24.7l-99.1 99.1zm0 49.4 173.2-173.2h-24.7L1370.2-53.7zM1568-177.5v-24.7L1370.2-4.4h24.7zm0 49.4v-24.7L1419.6-4.4h24.7l117.9-117.8zm0 24.7-99 99h24.7l74.3-74.3zm0 49.4-49.6 49.6h24.7l24.9-24.9z"/><path class="st3" d="m1370.2 218.4 25-24.9h-24.7l-.3.2zm0 49.4 74.4-74.3h-24.7l-49.7 49.6zm0 49.4L1494 193.5h-24.7l-99.1 99zm0 49.4 173.2-173.1h-24.7l-148.5 148.4zM1568 218.2v-24.7l-197.8 197.8h24.7zm0 49.3v-24.6l-148.4 148.4h24.7l117.9-117.9zm0 24.7-99 99.1h24.7l74.3-74.4zm0 49.4-49.6 49.7h24.7l24.9-25z"/><path class="st2" d="M1370.2 391.3H1568v396h-197.8z"/><path class="st1" d="M1370.2 787.2H1568V985h-197.8zm0-172.8 25-25h-24.7l-.3.3zm0 49.4 74.4-74.4h-24.7l-49.7 49.7zm0 49.4L1494 589.4h-24.7l-99.1 99.1zm0 49.3 173.2-173.1h-24.7l-148.5 148.5z"/><path class="st1" d="M1568 614.1v-24.7l-197.8 197.8h24.7zm0 49.4v-24.7l-148.4 148.4h24.7l117.9-117.8zm0 24.7-99 99h24.7l74.3-74.3zm0 49.4-49.6 49.6h24.7l24.9-24.9z"/></g><defs><path id="SVGID_27_" d="M0 0h1533.8v533.2H0z"/></defs><clipPath id="SVGID_28_"><use xlink:href="#SVGID_27_" style="overflow:visible"/></clipPath><g style="clip-path:url(#SVGID_28_)"><path class="st5" d="M73.4-85.7H236v487.8H73.4z"/><path class="st3" d="m73.4-65.2 20.5-20.5H73.6l-.2.2zm0 40.6 61.1-61.1h-20.3L73.4-44.9zm0 40.6L175.1-85.7h-20.3L73.4-4.3zm0 40.6L215.7-85.7h-20.3l-122 122zM236-65.4v-20.3L73.4 76.9h20.3zm0 40.6v-20.3l-122 122h20.3L231.2-20zm0 20.3-81.4 81.4h20.3L236 15.8zm0 40.6-40.8 40.8h20.3L236 56.4z"/><path class="st4" d="m73.4 260 20.5-20.5H73.6l-.2.2zm0 40.6 61.1-61.1h-20.3l-40.8 40.8zm0 40.6 101.7-101.7h-20.3l-81.4 81.4zm0 40.6 142.3-142.3h-20.3l-122 122zm162.6-122v-20.3L73.4 402.1h20.3zm0 40.6v-20.3l-122 122h20.3l96.9-96.9zm0 20.3-81.4 81.4h20.3L236 341zm0 40.6-40.8 40.8h20.3l20.5-20.5zM73.4 402.1H236v325.5H73.4z"/><path class="st3" d="M73.4 727.6H236v162.6H73.4zm0-142.1L93.9 565H73.6l-.2.2zm0 40.6 61.1-61.1h-20.3l-40.8 40.8zm0 40.6L175.1 565h-20.3l-81.4 81.4zm0 40.6L215.7 565h-20.3l-122 122z"/><path class="st3" d="M236 585.3V565L73.4 727.6h20.3zm0 40.6v-20.3l-122 122h20.3l96.9-96.9zm0 20.3-81.4 81.4h20.3l61.1-61.1zm0 40.6-40.8 40.8h20.3l20.5-20.5z"/></g></svg>