<svg xmlns="http://www.w3.org/2000/svg" width="458.1" height="177.4" style="overflow:visible;enable-background:new 0 0 458.1 177.4" xml:space="preserve"><path d="M103.7 68.1c0 30.5-15.5 54.7-38.9 54.7-22.8 0-39.2-23.1-39.2-55 0-30.5 15.5-54.7 38.9-54.7 22.8 0 39.2 23.1 39.2 55m25.6-.8c0-34.3-26.5-61.6-64.5-61.6C29.8 5.7 0 30.5 0 68.6c0 34.3 26.5 61.6 64.5 61.6 35 0 64.8-24.8 64.8-62.9m56.5 12.4c0 12.1-5.6 22.4-14.3 22.4-8.4 0-15-9.1-15-23.1 0-11.9 5.6-22.4 14.5-22.4 8.1 0 14.8 9.1 14.8 23.1M245 32.3c0-8.6-7.8-15-22.3-15-19.9 0-35.2 12.8-35.2 32.3 0 1.6.2 2.8.2 4-5.1-2.1-10.7-3.1-16.2-3.1-15.7 0-34.5 9.5-34.5 30 .2 10 5.9 19 14.8 23.5-13.9 1.9-22 9.3-22 20.9 0 11.7 9.4 20.2 27 18.1l25.4-3.1c12.7-1.6 16.9 2.9 16.9 9.5 0 11.4-10.8 20.5-28.1 20.5-13.8 0-18.8-4.8-18.8-11.7 0-1 .2-2.4.2-3.4.2-3.7-2.6-7-6.3-7.2h-.5c-4.2-.1-7.8 3.2-7.9 7.4v1c0 11.4 11 21.6 33.5 21.6 25.3 0 41.3-16.2 41.3-34.8 0-14.8-12-22.9-28.6-20.9l-29.1 3.6c-9.6 1.2-12.5-1.9-12.5-6.7 0-5.7 6.3-10.2 28.1-10.2h.3c15.9 0 34.5-9.5 34.5-30 0-6.5-2.5-12.7-7-17.4-1.6-3.3-2.3-7-2.1-10.7 0-15.2 10.5-23.8 21.3-23.8 4.5 0 5.9.7 5.9 3.8 0 .9-.2 1.6-.2 2.6.3 6 5.4 10.6 11.5 10.3 5.8-.6 10.4-5.4 10.4-11.1m54 90.5-8.5-.9c-1.3-.1-2.2-1.3-2.1-2.6V0l-30.7 7.8v3.6l8.7 2.8c1.2.4 2 1.6 1.9 2.9v101.8c-.1 1.9-1.7 3.4-3.6 3.3h-.3l-7.8.2-8.3-.2c-1.9.2-3.6-1.1-3.8-3V50L214 57.8v3.6l8.7 2.8c1.2.4 2 1.6 1.9 2.9v52.3c.1 1.3-.8 2.4-2.1 2.6l-7.1.9v5.5H299v-5.6zm159.1-64.5V53h-29.8v5.2l7 1.4c2.4.5 3.1 2.4 1.6 6.2l-16 38.3c-.7 1.6-1.6 1.6-2.1 0l-15-38.3c-1.6-4-.7-5.7 1.7-6.2l7-1.4V53h-62v5.2l7 1.4c2.4.5 3.3 2.4 1.7 6.2l-15.5 40.4c-.7 1.6-1.6 1.6-2.1 0l-15.7-40.4c-1.4-4-.7-5.7 1.7-6.2l7-1.4V53h-39.4v5.3l3.8.9c2.4.4 4.4 2 5.2 4.3l26.7 64.9h12l26.7-64.9c1.4-3.5 3-4.8 5.7-4.8h1c2.5-.1 4.8 1.7 5.4 4.1l27.9 67.3-7.5 17.6c-4.9 11.7-8.5 13.8-13.1 13.8-1.9 0-4-.3-6.1-.3-4.5-.3-8.4 3.1-8.7 7.5v.4c0 4.7 3.8 7.9 9.9 7.9 8.7 0 17.3-6.9 24.4-23.5l38-88.2c1.2-3.4 4.1-5.9 7.7-6.4l3.9-.6z" style="fill-rule:evenodd;clip-rule:evenodd"/></svg>