<svg xmlns="http://www.w3.org/2000/svg" xmlns:xlink="http://www.w3.org/1999/xlink" width="1544.3" height="2830.3" style="overflow:visible;enable-background:new 0 0 1544.3 2830.3" xml:space="preserve"><style>.st0{clip-path:url(#SVGID_2_)}.st1{fill:#262626}.st2{fill:#94785e}.st3{fill:#98d9e8}.st4{fill:#f2bad6}.st5{fill:#fff}.st6{fill:#f26c21}.st7{fill:#ffc742}.st8{fill:#00b0e1}.st9{fill:#c54b9a}.st10{fill:#ea3f43}.st11{fill:#48b978}</style><defs><path id="SVGID_1_" d="M0 .1h1536v1752.2H0z"/></defs><clipPath id="SVGID_2_"><use xlink:href="#SVGID_1_" style="overflow:visible"/></clipPath><g class="st0"><path class="st1" d="M1336 834h83.4v166.8H1336z"/><path class="st2" d="M1336 1000.8h83.4v83.4H1336zm31.3 0 49.6-49.7zm-31.1-83.3h-.2v.1zm27.4 66.1 55.8-55.7z"/><path class="st2" d="m1336 928 10.6-10.5h-10.4l-.2.1zm0 20.8 31.4-31.3H1357l-21 20.9zm0 20.8 52.2-52.1h-10.4l-41.8 41.7zm0 20.8 73-72.9h-10.4L1336 980zm10.4 10.4 17.2-17.2zm73-72.9v-10.4l-83.4 83.3h10.4z"/><path class="st2" d="m1419.4 927.9-73 72.9 17.2-17.2 55.8-55.7zm-2.5 23.2 2.5-2.4zm2.5-2.4v-10.4l-62.6 62.5h10.5l49.6-49.7zm0 10.4-41.7 41.7h10.4l31.3-31.3zm0 20.8-20.9 20.9h10.4l10.5-10.5zm0 20.8-.1.1h.1z"/><path class="st3" d="M1336 1084.2h83.4v250.2H1336z"/><path class="st2" d="m1367.3 1167.5 49.6-49.6zm-31.1-83.3h-.2v.1zm27.4 66.1 55.8-55.7z"/><path class="st2" d="m1336 1094.7 10.6-10.5h-10.4l-.2.1zm0 20.8 31.4-31.3H1357l-21 20.9zm0 20.8 52.2-52.1h-10.4l-41.8 41.7zm0 20.8 73-72.9h-10.4l-62.6 62.5zm10.4 10.4 17.2-17.2zm73-72.9v-10.4l-83.4 83.3h10.4z"/><path class="st2" d="m1419.4 1094.6-73 72.9 17.2-17.2 55.8-55.7zm-2.5 23.3 2.5-2.5zm2.5-2.5V1105l-62.6 62.5h10.5l49.6-49.6zm0 10.4-41.7 41.7h10.4l31.3-31.3zm0 20.8-20.9 20.9h10.4l10.5-10.5zm0 20.8-.1.1h.1z"/><path class="st4" d="m1367.3 1334.2 49.6-49.7zm-31.1-83.4h-.2v.2zm27.4 66.2 55.8-55.7z"/><path class="st4" d="m1336 1261.4 10.6-10.6h-10.4l-.2.2zm0 20.8 31.4-31.4H1357l-21 21zm0 20.8 52.2-52.2h-10.4l-41.8 41.8zm0 20.8 73-73h-10.4l-62.6 62.6zm10.4 10.4 17.2-17.2zm73-72.9v-10.5l-83.4 83.4h10.4z"/><path class="st4" d="m1419.4 1261.3-73 72.9 17.2-17.2 55.8-55.7zm-2.5 23.2 2.5-2.4zm2.5-2.4v-10.4l-62.6 62.5h10.5l49.6-49.7zm0 10.4-41.7 41.7h10.4l31.3-31.3zm0 20.8-20.9 20.9h10.4l10.5-10.5zm0 20.8-.1.1h.1z"/><path class="st1" d="M1336 1417.4h83.4v166.8H1336z"/><path class="st2" d="M1336 1584.1h83.4v83.4H1336zm31.3.1 49.6-49.6zm-31.1-83.3h-.2v.1zm27.4 66.2 55.8-55.8z"/><path class="st2" d="m1336 1511.4 10.6-10.5h-10.4l-.2.1zm0 20.8 31.4-31.3H1357l-21 20.9zm0 20.8 52.2-52.1h-10.4l-41.8 41.7zm0 20.8 73-72.9h-10.4l-62.6 62.5zm10.4 10.4 17.2-17.1zm73-72.9v-10.4l-83.4 83.3h10.4zm0 0-73 72.9 17.2-17.1 55.8-55.8zm-2.5 23.3 2.5-2.5zm2.5-2.5v-10.4l-62.6 62.5h10.5l49.6-49.6zm0 10.4-41.7 41.7h10.4l31.3-31.3zm0 20.8-20.9 20.9h10.4l10.5-10.5zm0 20.8-.1.1h.1z"/><path class="st3" d="M1336 1667.5h83.4v250.2H1336z"/><path class="st2" d="m1367.3 1750.8 49.7-49.6zm-31.1-83.3h-.1v.1zm27.5 66.2 55.7-55.8z"/><path class="st2" d="m1336.1 1678 10.5-10.5h-10.4l-.1.1zm0 20.8 31.3-31.3H1357l-20.9 20.9zm0 20.8 52.1-52.1h-10.4l-41.7 41.7zm0 20.8 72.9-72.9h-10.4l-62.5 62.5zm10.4 10.4 17.2-17.1zm72.9-72.9v-10.4l-83.3 83.3h10.4zm0 0-72.9 72.9 17.2-17.1 55.7-55.8zm-2.4 23.3 2.4-2.5zm2.4-2.5v-10.4l-62.5 62.5h10.4l49.7-49.6zm0 10.4-41.7 41.7h10.4l31.3-31.3zm0 20.8-20.9 20.9h10.4l10.5-10.5zm0 20.8-.1.1h.1z"/><path class="st4" d="m1367.3 1917.4 49.6-49.6zm-31.1-83.3h-.2v.1zm27.4 66.1 55.8-55.7z"/><path class="st4" d="m1336 1844.6 10.6-10.5h-10.4l-.2.1zm0 20.8 31.4-31.3H1357l-21 20.9zm0 20.8 52.2-52.1h-10.4l-41.8 41.7zm0 20.8 73-72.9h-10.4l-62.6 62.5zm10.4 10.4 17.2-17.2zm73-72.9v-10.4l-83.4 83.3h10.4z"/><path class="st4" d="m1419.4 1844.5-73 72.9 17.2-17.2 55.8-55.7zm-2.5 23.3 2.5-2.5zm2.5-2.5v-10.4l-62.6 62.5h10.5l49.6-49.6zm0 10.4-41.7 41.7h10.4l31.3-31.3zm0 20.8-20.9 20.9h10.4l10.5-10.5zm0 20.8-.1.1h.1zm-83.4.1h83.4v83.4H1336zm0-583.4h83.4v83.4H1336z"/><path class="st3" d="M1336 .1h83.4v250.3H1336z"/><path class="st2" d="M1336 250.3h83.4v166.8H1336z"/><path class="st4" d="M1336 10.6 1346.5.1h-10.4l-.1.1zm0 20.8L1367.3.1h-10.4L1336 21zm0 20.8L1388.2.1h-10.5L1336 41.8zm0 20.9 73-73h-10.4L1336 62.7zm83.4-62.6V.1L1336 83.5h10.4zm0 20.8V20.9l-62.6 62.6h10.4l49.7-49.7zm0 10.4-41.8 41.8h10.4l31.4-31.4zm0 20.9-20.9 20.9h10.4l10.5-10.5z"/><path class="st1" d="m1336 344.3 10.5-10.5h-10.4l-.1.1zm0 20.8 31.3-31.3h-10.4l-20.9 20.9zm0 20.8 52.2-52.1h-10.5l-41.7 41.7zm0 20.9 73-73h-10.4l-62.6 62.5zm83.4-62.6v-10.4l-83.4 83.4h10.4zm0 20.8v-10.4l-62.6 62.6h10.4l49.7-49.7zm0 10.4-41.8 41.8h10.4l31.4-31.4zm0 20.8-20.9 21h10.4l10.5-10.5z"/><path class="st2" d="m1336 177.4 10.5-10.5h-10.4l-.1.1zm0 20.9 31.3-31.4h-10.4l-20.9 20.9zm0 20.8 52.2-52.2h-10.5l-41.7 41.8zm0 20.8 73-73h-10.4l-62.6 62.6zm83.4-62.6v-10.4l-83.4 83.4h10.4zm0 20.9v-10.5l-62.6 62.6h10.4l49.7-49.7zm0 10.4-41.8 41.7h10.4l31.4-31.3zm0 20.8-20.9 20.9h10.4l10.5-10.5z"/><path class="st3" d="M1336 417.2h83.4v250.3H1336z"/><path class="st2" d="M1336 667.4h83.4v166.8H1336z"/><path class="st4" d="m1336 427.7 10.5-10.5h-10.4l-.1.1zm0 20.8 31.3-31.3h-10.4l-20.9 20.9zm0 20.9 52.2-52.2h-10.5l-41.7 41.7zm0 20.8 73-73h-10.4l-62.6 62.6zm83.4-62.6v-10.4l-83.4 83.4h10.4zm0 20.8V438l-62.6 62.6h10.4l49.7-49.7zm0 10.4-41.8 41.8h10.4l31.4-31.4zm0 20.9-20.9 20.9h10.4l10.5-10.5z"/><path class="st1" d="m1336 761.6 10.5-10.5h-10.4l-.1.1zm0 20.8 31.3-31.3h-10.4L1336 772zm0 20.9 52.2-52.2h-10.5l-41.7 41.8zm0 20.8 73-73h-10.4l-62.6 62.6zm83.4-62.6v-10.4l-83.4 83.4h10.4zm0 20.8v-10.4l-62.6 62.6h10.4l49.7-49.7zm0 10.4-41.8 41.8h10.4l31.4-31.3zm0 20.9-20.9 20.9h10.4l10.5-10.5z"/><path class="st2" d="m1336 594.8 10.5-10.6h-10.4l-.1.2zm0 20.8 31.3-31.4h-10.4l-20.9 21zm0 20.8 52.2-52.2h-10.5L1336 626zm0 20.9 73-73.1h-10.4l-62.6 62.6zm83.4-62.6v-10.5l-83.4 83.5h10.4zm0 20.8v-10.4l-62.6 62.6h10.4l49.7-49.7zm0 10.4-41.8 41.8h10.4l31.4-31.4zm0 20.8-20.9 21h10.4l10.5-10.6z"/></g><g class="st0"><path class="st3" d="M1419.3.3h125v375h-125z"/><path class="st4" d="M1419.3 375.3h125v250h-125z"/><path class="st2" d="M1419.3 16.1 1435 .3h-15.6l-.1.2zm0 31.2 47-47h-15.6l-31.4 31.4zm0 31.2L1497.5.3h-15.6l-62.6 62.6zm0 31.2L1528.7.3h-15.6l-93.8 93.8zm125-93.8V.3l-125 125h15.6zm0 31.2V31.5l-93.8 93.8h15.6l74.5-74.5zm0 15.6-62.6 62.6h15.6l47-47zm0 31.2-31.4 31.4h15.6l15.8-15.8z"/><path class="st5" d="m1419.3 516.1 15.7-15.8h-15.6l-.1.2zm0 31.2 47-47h-15.6l-31.4 31.4zm0 31.2 78.2-78.2h-15.6l-62.6 62.6zm0 31.2 109.4-109.4h-15.6l-93.8 93.8zm125-93.8v-15.6l-125 125h15.6zm0 31.2v-15.6l-93.8 93.8h15.6l74.5-74.5zm0 15.6-62.6 62.6h15.6l47-47zm0 31.2-31.4 31.4h15.6l15.8-15.8z"/><path class="st4" d="m1419.3 266.1 15.7-15.8h-15.6l-.1.2zm0 31.2 47-47h-15.6l-31.4 31.4zm0 31.2 78.2-78.2h-15.6l-62.6 62.6zm0 31.2 109.4-109.4h-15.6l-93.8 93.8zm125-93.8v-15.6l-125 125h15.6zm0 31.2v-15.6l-93.8 93.8h15.6l74.5-74.5zm0 15.6-62.6 62.6h15.6l47-47zm0 31.2-31.4 31.4h15.6l15.8-15.8z"/><path class="st3" d="M1419.3 625.3h125v375.3h-125z"/><path class="st4" d="M1419.3 875.6h125v250h-125z"/><path class="st2" d="m1419.3 766.4 15.7-15.8h-15.6l-.1.2zm0 31.2 47-47h-15.6l-31.4 31.4zm0 31.2 78.2-78.2h-15.6l-62.6 62.6zm0 31.2 109.4-109.4h-15.6l-93.8 93.8zm125-93.8v-15.6l-125 125h15.6zm0 31.2v-15.6l-93.8 93.8h15.6l74.5-74.4zm0 15.6-62.6 62.6h15.6l47-47zm0 31.3-31.4 31.3h15.6l15.8-15.7z"/><path class="st5" d="m1419.3 1016.4 15.7-15.8h-15.6l-.1.2zm0 31.2 47-47h-15.6l-31.4 31.4zm0 31.2 78.2-78.2h-15.6l-62.6 62.6zm0 31.2 109.4-109.4h-15.6l-93.8 93.8zm125-93.8v-15.6l-125 125h15.6zm0 31.2v-15.6l-93.8 93.8h15.6l74.5-74.4zm0 15.6-62.6 62.6h15.6l47-46.9zm0 31.3-31.4 31.3h15.6l15.8-15.7z"/><path class="st3" d="M1419.3 1125.6h125v375h-125z"/><path class="st4" d="M1419.3 1500.6h125v250h-125z"/><path class="st2" d="m1419.3 1141.4 15.7-15.8h-15.6l-.1.2zm0 31.2 47-47h-15.6l-31.4 31.4zm0 31.2 78.2-78.2h-15.6l-62.6 62.6zm0 31.2 109.4-109.4h-15.6l-93.8 93.8zm125-93.8v-15.6l-125 125h15.6zm0 31.2v-15.6l-93.8 93.8h15.6l74.5-74.5zm0 15.6-62.6 62.6h15.6l47-47zm0 31.2-31.4 31.4h15.6l15.8-15.8z"/><path class="st5" d="m1419.3 1641.4 15.7-15.8h-15.6l-.1.2zm0 31.2 47-47h-15.6l-31.4 31.4zm0 31.2 78.2-78.2h-15.6l-62.6 62.6zm0 31.2 109.4-109.4h-15.6l-93.8 93.8zm125-93.8v-15.6l-125 125h15.6zm0 31.2v-15.6l-93.8 93.8h15.6l74.5-74.5zm0 15.6-62.6 62.6h15.6l47-47zm0 31.2-31.4 31.4h15.6l15.8-15.8z"/><path class="st4" d="m1419.3 1391.4 15.7-15.8h-15.6l-.1.2zm0 31.2 47-47h-15.6l-31.4 31.4zm0 31.2 78.2-78.2h-15.6l-62.6 62.6zm0 31.2 109.4-109.4h-15.6l-93.8 93.8zm125-93.8v-15.6l-125 125h15.6zm0 31.2v-15.6l-93.8 93.8h15.6l74.5-74.5zm0 15.6-62.6 62.6h15.6l47-47zm0 31.2-31.4 31.4h15.6l15.8-15.8z"/><path class="st3" d="M1419.3 1750.6h125v375.3h-125z"/><path class="st4" d="M1419.3 2000.9h125v250h-125z"/><path class="st2" d="m1419.3 1891.7 15.7-15.8h-15.6l-.1.2zm0 31.2 47-47h-15.6l-31.4 31.4zm0 31.2 78.2-78.2h-15.6l-62.6 62.6zm0 31.2 109.4-109.4h-15.6l-93.8 93.8zm125-93.7v-15.7l-125 125h15.6zm0 31.2v-15.6l-93.8 93.7h15.6l74.5-74.4zm0 15.6-62.6 62.5h15.6l47-46.9zm0 31.2-31.4 31.3h15.6l15.8-15.7z"/><path class="st5" d="m1419.3 2141.7 15.7-15.8h-15.6l-.1.2zm0 31.2 47-47h-15.6l-31.4 31.4zm0 31.2 78.2-78.2h-15.6l-62.6 62.6zm0 31.2 109.4-109.4h-15.6l-93.8 93.8zm125-93.7v-15.7l-125 125h15.6zm0 31.2v-15.6l-93.8 93.7h15.6l74.5-74.4zm0 15.6-62.6 62.5h15.6l47-46.9zm0 31.2-31.4 31.3h15.6l15.8-15.7z"/></g><g class="st0"><path class="st1" d="M348.6 0h101.1v202.3H348.6z"/><path class="st2" d="M348.6 202.3h101.1v101.1H348.6zm37.9 0 60.2-60.2zm-37.8-101.1h-.1v.1zm33.3 80.2 67.7-67.6zm-33.4-67.5 12.8-12.7h-12.7l-.1.1zm0 25.3 38-38H374l-25.4 25.4zm0 25.2 63.2-63.2h-12.6l-50.6 50.6zm0 25.2 88.5-88.4h-12.7L348.6 177zm12.6 12.7 20.8-20.9z"/><path class="st2" d="M449.7 113.8v-12.6L348.6 202.3h12.6z"/><path class="st2" d="m449.7 113.8-88.5 88.5 20.8-20.9 67.7-67.6zm-3 28.3 3-3.1zm3-3.1v-12.6l-75.9 75.9h12.7l60.2-60.2zm0 12.7-50.6 50.6h12.6l38-38zm0 25.2-25.4 25.4h12.6l12.8-12.8zm0 25.2-.2.2h.2z"/><path class="st3" d="M348.6 303.4h101.1v303.4H348.6z"/><path class="st2" d="m386.5 404.5 60.2-60.2zm-37.8-101.1h-.1v.1zm33.3 80.2 67.7-67.6zm-33.4-67.5 12.8-12.7h-12.7l-.1.1zm0 25.3 38-38H374l-25.4 25.4zm0 25.2 63.2-63.2h-12.6L348.6 354zm0 25.2 88.5-88.4h-12.7l-75.8 75.8zm12.6 12.7 20.8-20.9zm88.5-88.5v-12.6L348.6 404.5h12.6z"/><path class="st2" d="m449.7 316-88.5 88.5 20.8-20.9 67.7-67.6zm-3 28.3 3-3.1zm3-3.1v-12.6l-75.9 75.9h12.7l60.2-60.2zm0 12.7-50.6 50.6h12.6l38-38zm0 25.2-25.4 25.4h12.6l12.8-12.8zm0 25.2-.2.2h.2z"/><path class="st4" d="m386.5 606.6 60.2-60.2zm-37.8-101.1h-.1v.2zm33.3 80.3 67.7-67.7zm-33.4-67.5 12.8-12.8h-12.7l-.1.2zm0 25.2 38-38H374l-25.4 25.4zm0 25.2 63.2-63.2h-12.6l-50.6 50.6zm0 25.3 88.5-88.5h-12.7l-75.8 75.9zm12.6 12.6 20.8-20.8zm88.5-88.5v-12.6L348.6 606.6h12.6z"/><path class="st4" d="m449.7 518.1-88.5 88.5 20.8-20.8 67.7-67.7zm-3 28.3 3-3zm3-3v-12.6l-75.9 75.8h12.7l60.2-60.2zm0 12.6-50.6 50.6h12.6l38-38zm0 25.2-25.4 25.4h12.6l12.8-12.8zm0 25.3-.2.1h.2z"/><path class="st1" d="M348.6 707.5h101.1v202.3H348.6z"/><path class="st2" d="M348.6 909.7h101.1v101.1H348.6zm37.9.1 60.2-60.2zm-37.8-101h-.1v.1zM382 889l67.7-67.6zm-33.4-67.5 12.8-12.7h-12.7l-.1.1zm0 25.2 38-37.9H374l-25.4 25.3zm0 25.3 63.2-63.2h-12.6l-50.6 50.6zm0 25.2 88.5-88.4h-12.7l-75.8 75.8zm12.6 12.6L382 889z"/><path class="st2" d="M449.7 821.4v-12.6l-101.1 101h12.6z"/><path class="st2" d="m449.7 821.4-88.5 88.4L382 889l67.7-67.6zm-3 28.2 3-3zm3-3V834l-75.9 75.8h12.7l60.2-60.2zm0 12.6-50.6 50.6h12.6l38-38zm0 25.3-25.4 25.3h12.6l12.8-12.7zm0 25.2-.2.1h.2z"/><path class="st3" d="M348.6 1010.8h101.1v303.4H348.6z"/><path class="st2" d="m386.5 1111.9 60.2-60.2zm-37.7-101.1h-.1v.2zm33.3 80.3 67.6-67.6z"/><path class="st2" d="m348.7 1023.6 12.7-12.8h-12.6l-.1.2zm0 25.2 38-38H374l-25.3 25.4zm0 25.3 63.2-63.3h-12.6l-50.6 50.6zm0 25.2 88.4-88.5h-12.6l-75.8 75.9zm12.6 12.6 20.8-20.8zm88.4-88.4v-12.7l-101 101.1h12.6zm0 0-88.4 88.4 20.8-20.8 67.6-67.6zm-3 28.2 3-3zm3-3v-12.6l-75.8 75.8h12.6l60.2-60.2zm0 12.6-50.6 50.6h12.7l37.9-38zm0 25.2-25.3 25.4H437l12.7-12.7zm0 25.3-.1.1h.1z"/><path class="st4" d="m386.5 1313.9 60.2-60.2zm-37.8-101h-.1v.1zm33.3 80.2 67.7-67.6z"/><path class="st4" d="m348.6 1225.6 12.8-12.7h-12.7l-.1.1zm0 25.2 38-37.9H374l-25.4 25.3zm0 25.3 63.2-63.2h-12.6l-50.6 50.5zm0 25.2 88.5-88.4h-12.7l-75.8 75.8zm12.6 12.6 20.8-20.8zm88.5-88.4v-12.6l-101.1 101h12.6z"/><path class="st4" d="m449.7 1225.5-88.5 88.4 20.8-20.8 67.7-67.6zm-3 28.2 3-3zm3-3v-12.6l-75.9 75.8h12.7l60.2-60.2zm0 12.6-50.6 50.6h12.6l38-38zm0 25.2-25.4 25.4h12.6l12.8-12.7zm0 25.3-.2.1h.2zm-101.1.1h101.1V1415H348.6zm0-707.5h101.1v101.1H348.6z"/><path class="st1" d="M348.6 1415.3h101.1v202.3H348.6z"/><path class="st2" d="M348.6 1617.6h101.1v101.1H348.6zm37.9 0 60.2-60.2zm-37.8-101.1h-.1v.1zm33.3 80.2 67.7-67.6zm-33.4-67.5 12.8-12.7h-12.7l-.1.1zm0 25.3 38-38H374l-25.4 25.4zm0 25.2 63.2-63.2h-12.6l-50.6 50.6zm0 25.2 88.5-88.4h-12.7l-75.8 75.8zm12.6 12.7 20.8-20.9z"/><path class="st2" d="M449.7 1529.1v-12.6l-101.1 101.1h12.6z"/><path class="st2" d="m449.7 1529.1-88.5 88.5 20.8-20.9 67.7-67.6zm-3 28.3 3-3.1zm3-3.1v-12.6l-75.9 75.9h12.7l60.2-60.2zm0 12.7-50.6 50.6h12.6l38-38zm0 25.2-25.4 25.4h12.6l12.8-12.8zm0 25.2-.2.2h.2z"/><path class="st3" d="M348.6 1718.7h101.1v303.4H348.6z"/><path class="st2" d="m386.5 1819.8 60.2-60.3zm-37.8-101.1h-.1v.1zm33.3 80.2 67.7-67.6zm-33.4-67.5 12.8-12.7h-12.7l-.1.1zm0 25.3 38-38H374l-25.4 25.4zm0 25.2 63.2-63.2h-12.6l-50.6 50.6zm0 25.2 88.5-88.4h-12.7l-75.8 75.8zm12.6 12.7 20.8-20.9zm88.5-88.5v-12.6l-101.1 101.1h12.6z"/><path class="st2" d="m449.7 1731.3-88.5 88.5 20.8-20.9 67.7-67.6zm-3 28.2 3-3zm3-3v-12.6l-75.9 75.9h12.7l60.2-60.3zm0 12.7-50.6 50.6h12.6l38-38zm0 25.2-25.4 25.4h12.6l12.8-12.8zm0 25.2-.2.2h.2z"/><path class="st4" d="m386.5 2021.9 60.2-60.2zm-37.8-101.1h-.1v.2zm33.3 80.3 67.7-67.7zm-33.4-67.5 12.8-12.8h-12.7l-.1.2zm0 25.2 38-38H374l-25.4 25.4zm0 25.2 63.2-63.2h-12.6l-50.6 50.6zm0 25.3 88.5-88.5h-12.7l-75.8 75.9zm12.6 12.6 20.8-20.8zm88.5-88.5v-12.6l-101.1 101.1h12.6z"/><path class="st4" d="m449.7 1933.4-88.5 88.5 20.8-20.8 67.7-67.7zm-3 28.3 3-3zm3-3v-12.6l-75.9 75.8h12.7l60.2-60.2zm0 12.6-50.6 50.6h12.6l38-38zm0 25.2-25.4 25.4h12.6l12.8-12.8zm0 25.3-.2.1h.2z"/><path class="st1" d="M348.6 2122.8h101.1v202.3H348.6z"/><path class="st2" d="M348.6 2325h101.1v101.1H348.6zm37.9.1 60.2-60.2zm-37.8-101h-.1v.1zm33.3 80.2 67.7-67.6zm-33.4-67.5 12.8-12.7h-12.7l-.1.1zm0 25.2 38-37.9H374l-25.4 25.3zm0 25.3 63.2-63.2h-12.6l-50.6 50.6zm0 25.2 88.5-88.4h-12.7l-75.8 75.8zm12.6 12.6 20.8-20.8z"/><path class="st2" d="M449.7 2236.7v-12.6l-101.1 101h12.6z"/><path class="st2" d="m449.7 2236.7-88.5 88.4 20.8-20.8 67.7-67.6zm-3 28.2 3-3zm3-3v-12.6l-75.9 75.8h12.7l60.2-60.2zm0 12.6-50.6 50.6h12.6l38-38zm0 25.3-25.4 25.3h12.6l12.8-12.7zm0 25.2-.2.1h.2z"/><path class="st3" d="M348.6 2426.1h101.1v303.4H348.6z"/><path class="st2" d="m386.5 2527.2 60.2-60.2zm-37.7-101.1h-.1v.2zm33.3 80.3 67.6-67.6z"/><path class="st2" d="m348.7 2438.9 12.7-12.8h-12.6l-.1.2zm0 25.2 38-38H374l-25.3 25.4zm0 25.2 63.2-63.2h-12.6l-50.6 50.6zm0 25.3 88.4-88.5h-12.6l-75.8 75.9zm12.6 12.6 20.8-20.8zm88.4-88.4v-12.7l-101 101.1h12.6zm0 0-88.4 88.4 20.8-20.8 67.6-67.6zm-3 28.2 3-3zm3-3v-12.6l-75.8 75.8h12.6l60.2-60.2zm0 12.6-50.6 50.6h12.7l37.9-38zm0 25.2-25.3 25.4H437l12.7-12.7zm0 25.3-.1.1h.1z"/><path class="st4" d="m386.5 2729.2 60.2-60.2zm-37.8-101.1h-.1v.2zm33.3 80.3 67.7-67.6zm-33.4-67.5 12.8-12.8h-12.7l-.1.2zm0 25.2 38-38H374l-25.4 25.4zm0 25.3 63.2-63.3h-12.6l-50.6 50.6zm0 25.2 88.5-88.5h-12.7l-75.8 75.9zm12.6 12.6 20.8-20.8zm88.5-88.4v-12.7l-101.1 101.1h12.6z"/><path class="st4" d="m449.7 2640.8-88.5 88.4 20.8-20.8 67.7-67.6zm-3 28.2 3-3zm3-3v-12.6l-75.9 75.8h12.7l60.2-60.2zm0 12.6-50.6 50.6h12.6l38-38zm0 25.2-25.4 25.4h12.6l12.8-12.7zm0 25.3-.2.1h.2z"/><path class="st4" d="M348.6 2729.2h101.1v101.1H348.6zm0-707.5h101.1v101.1H348.6z"/></g><g class="st0"><path class="st6" d="M351.1.6h41.6v83.3h-41.6z"/><path class="st7" d="M351.1 83.9h41.6v83.3h-41.6z"/><path class="st5" d="M351.1 167.2h41.6v125h-41.6z"/><path class="st8" d="M351.1 292.2h41.6v83.3h-41.6z"/><path class="st9" d="M351.1 375.6h41.6v83.3h-41.6z"/><path class="st10" d="M351.1 458.9h41.6v83.3h-41.6zm0-453.1 5.2-5.2h-5.2zm0 10.4L366.7.6h-5.2L351.1 11zm0 10.4 26-26h-5.2l-20.8 20.8zm0 10.4L387.5.6h-5.2l-31.2 31.2zm41.6-31.2V.6l-41.6 41.6h5.2zm0 10.4V11l-31.2 31.2h5.2l24.8-24.8zm0 5.2-20.8 20.8h5.2l15.6-15.6zm0 10.4-10.4 10.4h5.2l5.2-5.2z"/><path class="st6" d="m351.1 89.2 5.2-5.3h-5.2v.1zm0 10.4 15.6-15.7h-5.2l-10.4 10.5zm0 10.4 26-26.1h-5.2l-20.8 20.9zm0 10.4 36.4-36.5h-5.2l-31.2 31.3zm41.6-31.3v-5.2l-41.6 41.7h5.2zm0 10.4v-5.2l-31.2 31.3h5.2l24.8-24.9zm0 5.2-20.8 20.9h5.2l15.6-15.7zm0 10.4-10.4 10.5h5.2l5.2-5.3z"/><path class="st7" d="m351.1 172.5 5.2-5.3h-5.2v.1zm0 10.4 15.6-15.7h-5.2l-10.4 10.5zm0 10.4 26-26.1h-5.2l-20.8 20.9zm0 10.4 36.4-36.5h-5.2l-31.2 31.3zm41.6-31.3v-5.2l-41.6 41.7h5.2zm0 10.4v-5.2l-31.2 31.3h5.2l24.8-24.8zm0 5.2-20.8 20.9h5.2l15.6-15.7zm0 10.4-10.4 10.5h5.2l5.2-5.3z"/><path class="st8" d="m351.1 255.8 5.2-5.2h-5.2zm0 10.4 15.6-15.6h-5.2L351.1 261zm0 10.4 26-26h-5.2l-20.8 20.8zm0 10.4 36.4-36.4h-5.2l-31.2 31.2zm41.6-31.2v-5.2l-41.6 41.6h5.2zm0 10.4V261l-31.2 31.2h5.2l24.8-24.8zm0 5.2-20.8 20.8h5.2l15.6-15.6zm0 10.4-10.4 10.4h5.2l5.2-5.2z"/><path class="st9" d="m351.1 339.2 5.2-5.3h-5.2v.1zm0 10.4 15.6-15.7h-5.2l-10.4 10.5zm0 10.4 26-26.1h-5.2l-20.8 20.9zm0 10.4 36.4-36.5h-5.2l-31.2 31.3zm41.6-31.3v-5.2l-41.6 41.7h5.2zm0 10.4v-5.2l-31.2 31.3h5.2l24.8-24.9zm0 5.2-20.8 20.9h5.2l15.6-15.7zm0 10.4-10.4 10.5h5.2l5.2-5.3z"/><path class="st10" d="m351.1 422.5 5.2-5.3h-5.2v.1zm0 10.4 15.6-15.7h-5.2l-10.4 10.5zm0 10.4 26-26.1h-5.2l-20.8 20.9zm0 10.4 36.4-36.5h-5.2l-31.2 31.3zm41.6-31.3v-5.2l-41.6 41.7h5.2zm0 10.4v-5.2l-31.2 31.3h5.2l24.8-24.8zm0 5.2-20.8 20.9h5.2l15.6-15.7zm0 10.4-10.4 10.5h5.2l5.2-5.3z"/><path class="st6" d="m351.1 505.8 5.2-5.2h-5.2zm0 10.4 15.6-15.6h-5.2L351.1 511zm0 10.4 26-26h-5.2l-20.8 20.8zm0 10.4 36.4-36.4h-5.2l-31.2 31.2zm41.6-31.2v-5.2l-41.6 41.6h5.2zm0 10.4V511l-31.2 31.2h5.2l24.8-24.8zm0 5.2-20.8 20.8h5.2l15.6-15.6zm0 10.4-10.4 10.4h5.2l5.2-5.2zm-41.6 10.4h41.6v41.7h-41.6z"/><path class="st7" d="M351.1 583.9h41.6v83.3h-41.6z"/><path class="st5" d="M351.1 667.2h41.6v125h-41.6z"/><path class="st8" d="M351.1 792.2h41.6v83.3h-41.6z"/><path class="st9" d="M351.1 875.6h41.6v83.3h-41.6z"/><path class="st10" d="M351.1 958.9h41.6v83.3h-41.6z"/><path class="st6" d="m351.1 589.2 5.2-5.3h-5.2v.1zm0 10.4 15.6-15.7h-5.2l-10.4 10.5zm0 10.4 26-26.1h-5.2l-20.8 20.9zm0 10.4 36.4-36.5h-5.2l-31.2 31.3zm41.6-31.3v-5.2l-41.6 41.7h5.2zm0 10.4v-5.2l-31.2 31.3h5.2l24.8-24.9zm0 5.2-20.8 20.9h5.2l15.6-15.7zm0 10.4-10.4 10.5h5.2l5.2-5.3z"/><path class="st7" d="m351.1 672.5 5.2-5.3h-5.2v.1zm0 10.4 15.6-15.7h-5.2l-10.4 10.5zm0 10.4 26-26.1h-5.2l-20.8 20.9zm0 10.4 36.4-36.5h-5.2l-31.2 31.3zm41.6-31.3v-5.2l-41.6 41.7h5.2zm0 10.4v-5.2l-31.2 31.3h5.2l24.8-24.8zm0 5.2-20.8 20.9h5.2l15.6-15.7zm0 10.4-10.4 10.5h5.2l5.2-5.3z"/><path class="st8" d="m351.1 755.8 5.2-5.2h-5.2zm0 10.4 15.6-15.6h-5.2L351.1 761zm0 10.4 26-26h-5.2l-20.8 20.8zm0 10.4 36.4-36.4h-5.2l-31.2 31.2zm41.6-31.2v-5.2l-41.6 41.6h5.2zm0 10.4V761l-31.2 31.2h5.2l24.8-24.8zm0 5.2-20.8 20.8h5.2l15.6-15.6zm0 10.4-10.4 10.4h5.2l5.2-5.2z"/><path class="st9" d="m351.1 839.2 5.2-5.3h-5.2v.1zm0 10.4 15.6-15.7h-5.2l-10.4 10.5zm0 10.4 26-26.1h-5.2l-20.8 20.9zm0 10.4 36.4-36.5h-5.2l-31.2 31.3zm41.6-31.3v-5.2l-41.6 41.7h5.2zm0 10.4v-5.2l-31.2 31.3h5.2l24.8-24.9zm0 5.2-20.8 20.9h5.2l15.6-15.7zm0 10.4-10.4 10.5h5.2l5.2-5.3z"/><path class="st10" d="m351.1 922.5 5.2-5.3h-5.2v.1zm0 10.4 15.6-15.7h-5.2l-10.4 10.5zm0 10.4 26-26.1h-5.2l-20.8 20.9zm0 10.4 36.4-36.5h-5.2l-31.2 31.3zm41.6-31.3v-5.2l-41.6 41.7h5.2zm0 10.4v-5.2l-31.2 31.3h5.2l24.8-24.8zm0 5.2-20.8 20.9h5.2l15.6-15.7zm0 10.4-10.4 10.5h5.2l5.2-5.3z"/><path class="st6" d="m351.1 1005.8 5.2-5.2h-5.2zm0 10.4 15.6-15.6h-5.2l-10.4 10.4zm0 10.4 26-26h-5.2l-20.8 20.8zm0 10.4 36.4-36.4h-5.2l-31.2 31.2zm41.6-31.2v-5.2l-41.6 41.6h5.2zm0 10.4v-5.2l-31.2 31.2h5.2l24.8-24.8zm0 5.2-20.8 20.8h5.2l15.6-15.6zm0 10.4-10.4 10.4h5.2l5.2-5.2z"/><path class="st6" d="M351.1 1000.2h41.6v83.3h-41.6z"/><path class="st7" d="M351.1 1083.5h41.6v83.3h-41.6z"/><path class="st5" d="M351.1 1166.9h41.6v125h-41.6z"/><path class="st8" d="M351.1 1291.9h41.6v83.3h-41.6z"/><path class="st9" d="M351.1 1375.2h41.6v83.3h-41.6z"/><path class="st10" d="M351.1 1458.5h41.6v83.3h-41.6zm0-453.1 5.2-5.2h-5.2zm0 10.4 15.6-15.6h-5.2l-10.4 10.4zm0 10.4 26-26h-5.2l-20.8 20.8zm0 10.5 36.4-36.5h-5.2l-31.2 31.3zm41.6-31.3v-5.2l-41.6 41.7h5.2zm0 10.4v-5.2l-31.2 31.3h5.2l24.8-24.9zm0 5.2-20.8 20.9h5.2l15.6-15.7zm0 10.4-10.4 10.5h5.2l5.2-5.3z"/><path class="st6" d="m351.1 1088.8 5.2-5.3h-5.2v.1zm0 10.4 15.6-15.7h-5.2l-10.4 10.5zm0 10.4 26-26.1h-5.2l-20.8 20.9zm0 10.4 36.4-36.5h-5.2l-31.2 31.3zm41.6-31.3v-5.2l-41.6 41.7h5.2zm0 10.4v-5.2l-31.2 31.3h5.2l24.8-24.8zm0 5.2-20.8 20.9h5.2l15.6-15.7zm0 10.4-10.4 10.5h5.2l5.2-5.3z"/><path class="st7" d="m351.1 1172.1 5.2-5.2h-5.2zm0 10.4 15.6-15.6h-5.2l-10.4 10.4zm0 10.4 26-26h-5.2l-20.8 20.8zm0 10.4 36.4-36.4h-5.2l-31.2 31.2zm41.6-31.2v-5.2l-41.6 41.6h5.2zm0 10.4v-5.2l-31.2 31.2h5.2l24.8-24.8zm0 5.2-20.8 20.8h5.2l15.6-15.6zm0 10.4-10.4 10.4h5.2l5.2-5.2z"/><path class="st8" d="m351.1 1255.4 5.2-5.2h-5.2zm0 10.4 15.6-15.6h-5.2l-10.4 10.4zm0 10.4 26-26h-5.2l-20.8 20.8zm0 10.5 36.4-36.5h-5.2l-31.2 31.3zm41.6-31.3v-5.2l-41.6 41.7h5.2zm0 10.4v-5.2l-31.2 31.3h5.2l24.8-24.9zm0 5.2-20.8 20.9h5.2l15.6-15.7zm0 10.4-10.4 10.5h5.2l5.2-5.3z"/><path class="st9" d="m351.1 1338.8 5.2-5.3h-5.2v.1zm0 10.4 15.6-15.7h-5.2l-10.4 10.5zm0 10.4 26-26.1h-5.2l-20.8 20.9zm0 10.4 36.4-36.5h-5.2l-31.2 31.3zm41.6-31.3v-5.2l-41.6 41.7h5.2zm0 10.4v-5.2l-31.2 31.3h5.2l24.8-24.8zm0 5.2-20.8 20.9h5.2l15.6-15.7zm0 10.4-10.4 10.5h5.2l5.2-5.3z"/><path class="st10" d="m351.1 1422.1 5.2-5.2h-5.2zm0 10.4 15.6-15.6h-5.2l-10.4 10.4zm0 10.4 26-26h-5.2l-20.8 20.8zm0 10.4 36.4-36.4h-5.2l-31.2 31.2zm41.6-31.2v-5.2l-41.6 41.6h5.2zm0 10.4v-5.2l-31.2 31.2h5.2l24.8-24.8zm0 5.2-20.8 20.8h5.2l15.6-15.6zm0 10.4-10.4 10.4h5.2l5.2-5.2z"/><path class="st6" d="m351.1 1505.4 5.2-5.2h-5.2zm0 10.4 15.6-15.6h-5.2l-10.4 10.4zm0 10.5 26-26.1h-5.2l-20.8 20.9zm0 10.4 36.4-36.5h-5.2l-31.2 31.3zm41.6-31.3v-5.2l-41.6 41.7h5.2zm0 10.4v-5.2l-31.2 31.3h5.2l24.8-24.9zm0 5.2-20.8 20.9h5.2l15.6-15.7zm0 10.4-10.4 10.5h5.2l5.2-5.3zm-41.6 10.5h41.6v41.7h-41.6z"/><path class="st7" d="M351.1 1583.5h41.6v83.3h-41.6z"/><path class="st5" d="M351.1 1666.9h41.6v125h-41.6z"/><path class="st8" d="M351.1 1791.9h41.6v83.3h-41.6z"/><path class="st9" d="M351.1 1875.2h41.6v83.3h-41.6z"/><path class="st10" d="M351.1 1958.5h41.6v83.3h-41.6z"/><path class="st6" d="m351.1 1588.8 5.2-5.3h-5.2v.1zm0 10.4 15.6-15.7h-5.2l-10.4 10.5zm0 10.4 26-26.1h-5.2l-20.8 20.9zm0 10.4 36.4-36.5h-5.2l-31.2 31.3zm41.6-31.3v-5.2l-41.6 41.7h5.2zm0 10.4v-5.2l-31.2 31.3h5.2l24.8-24.8zm0 5.2-20.8 20.9h5.2l15.6-15.7zm0 10.4-10.4 10.5h5.2l5.2-5.3z"/><path class="st7" d="m351.1 1672.1 5.2-5.2h-5.2zm0 10.4 15.6-15.6h-5.2l-10.4 10.4zm0 10.4 26-26h-5.2l-20.8 20.8zm0 10.4 36.4-36.4h-5.2l-31.2 31.2zm41.6-31.2v-5.2l-41.6 41.6h5.2zm0 10.4v-5.2l-31.2 31.2h5.2l24.8-24.8zm0 5.2-20.8 20.8h5.2l15.6-15.6zm0 10.4-10.4 10.4h5.2l5.2-5.2z"/><path class="st8" d="m351.1 1755.4 5.2-5.2h-5.2zm0 10.4 15.6-15.6h-5.2l-10.4 10.4zm0 10.5 26-26.1h-5.2l-20.8 20.9zm0 10.4 36.4-36.5h-5.2l-31.2 31.3zm41.6-31.3v-5.2l-41.6 41.7h5.2zm0 10.4v-5.2l-31.2 31.3h5.2l24.8-24.9zm0 5.2-20.8 20.9h5.2l15.6-15.7zm0 10.4-10.4 10.5h5.2l5.2-5.3z"/><path class="st9" d="m351.1 1838.8 5.2-5.3h-5.2v.1zm0 10.4 15.6-15.7h-5.2l-10.4 10.5zm0 10.4 26-26.1h-5.2l-20.8 20.9zm0 10.4 36.4-36.5h-5.2l-31.2 31.3zm41.6-31.3v-5.2l-41.6 41.7h5.2zm0 10.4v-5.2l-31.2 31.3h5.2l24.8-24.8zm0 5.2-20.8 20.9h5.2l15.6-15.7zm0 10.4-10.4 10.5h5.2l5.2-5.3z"/><path class="st10" d="m351.1 1922.1 5.2-5.2h-5.2zm0 10.4 15.6-15.6h-5.2l-10.4 10.4zm0 10.4 26-26h-5.2l-20.8 20.8zm0 10.4 36.4-36.4h-5.2l-31.2 31.2zm41.6-31.2v-5.2l-41.6 41.6h5.2zm0 10.4v-5.2l-31.2 31.2h5.2l24.8-24.8zm0 5.2-20.8 20.8h5.2l15.6-15.6zm0 10.4-10.4 10.4h5.2l5.2-5.2z"/><path class="st6" d="m351.1 2005.4 5.2-5.2h-5.2zm0 10.4 15.6-15.6h-5.2l-10.4 10.4zm0 10.5 26-26.1h-5.2l-20.8 20.9zm0 10.4 36.4-36.5h-5.2l-31.2 31.3zm41.6-31.3v-5.2l-41.6 41.7h5.2zm0 10.4v-5.2l-31.2 31.3h5.2l24.8-24.9zm0 5.2-20.8 20.9h5.2l15.6-15.7zm0 10.4-10.4 10.5h5.2l5.2-5.3z"/></g><g class="st0"><path class="st3" d="M246.7.3h125v375h-125z"/><path class="st4" d="M246.7 375.3h125v250h-125z"/><path class="st2" d="M246.7 16.1 262.5.3h-15.6l-.2.2zm0 31.2 47-47h-15.6l-31.4 31.4zm0 31.2L324.9.3h-15.6l-62.6 62.6zm0 31.2L356.1.3h-15.6l-93.8 93.8zm125-93.8V.3l-125 125h15.6zm0 31.2V31.5l-93.8 93.8h15.6L368 50.8zm0 15.6-62.5 62.6h15.6l46.9-47zm0 31.2-31.3 31.4H356l15.7-15.8z"/><path class="st5" d="m246.7 516.1 15.8-15.8h-15.6l-.2.2zm0 31.2 47-47h-15.6l-31.4 31.4zm0 31.2 78.2-78.2h-15.6l-62.6 62.6zm0 31.2 109.4-109.4h-15.6l-93.8 93.8zm125-93.8v-15.6l-125 125h15.6zm0 31.2v-15.6l-93.8 93.8h15.6l74.5-74.5zm0 15.6-62.5 62.6h15.6l46.9-47zm0 31.2-31.3 31.4H356l15.7-15.8z"/><path class="st4" d="m246.7 266.1 15.8-15.8h-15.6l-.2.2zm0 31.2 47-47h-15.6l-31.4 31.4zm0 31.2 78.2-78.2h-15.6l-62.6 62.6zm0 31.2 109.4-109.4h-15.6l-93.8 93.8zm125-93.8v-15.6l-125 125h15.6zm0 31.2v-15.6l-93.8 93.8h15.6l74.5-74.5zm0 15.6-62.5 62.6h15.6l46.9-47zm0 31.2-31.3 31.4H356l15.7-15.8z"/><path class="st3" d="M246.7 625.3h125v375.3h-125z"/><path class="st4" d="M246.7 875.6h125v250h-125z"/><path class="st2" d="m246.7 766.4 15.8-15.8h-15.6l-.2.2zm0 31.2 47-47h-15.6L246.7 782zm0 31.2 78.2-78.2h-15.6l-62.6 62.6zm0 31.2 109.4-109.4h-15.6l-93.8 93.8zm125-93.8v-15.6l-125 125h15.6zm0 31.2v-15.6l-93.8 93.8h15.6l74.5-74.4zm0 15.6-62.5 62.6h15.6l46.9-47zm0 31.3-31.3 31.3H356l15.7-15.7z"/><path class="st5" d="m246.7 1016.4 15.8-15.8h-15.6l-.2.2zm0 31.2 47-47h-15.6l-31.4 31.4zm0 31.2 78.2-78.2h-15.6l-62.6 62.6zm0 31.2 109.4-109.4h-15.6l-93.8 93.8zm125-93.8v-15.6l-125 125h15.6zm0 31.2v-15.6l-93.8 93.8h15.6l74.5-74.4zm0 15.6-62.5 62.6h15.6l46.9-46.9zm0 31.3-31.3 31.3H356l15.7-15.7z"/><path class="st3" d="M246.7 1125.6h125v375h-125z"/><path class="st4" d="M246.7 1500.6h125v250h-125z"/><path class="st2" d="m246.7 1141.4 15.8-15.8h-15.6l-.2.2zm0 31.2 47-47h-15.6l-31.4 31.4zm0 31.2 78.2-78.2h-15.6l-62.6 62.6zm0 31.2 109.4-109.4h-15.6l-93.8 93.8zm125-93.8v-15.6l-125 125h15.6zm0 31.2v-15.6l-93.8 93.8h15.6l74.5-74.5zm0 15.6-62.5 62.6h15.6l46.9-47zm0 31.2-31.3 31.4H356l15.7-15.8z"/><path class="st5" d="m246.7 1641.4 15.8-15.8h-15.6l-.2.2zm0 31.2 47-47h-15.6l-31.4 31.4zm0 31.2 78.2-78.2h-15.6l-62.6 62.6zm0 31.2 109.4-109.4h-15.6l-93.8 93.8zm125-93.8v-15.6l-125 125h15.6zm0 31.2v-15.6l-93.8 93.8h15.6l74.5-74.5zm0 15.6-62.5 62.6h15.6l46.9-47zm0 31.2-31.3 31.4H356l15.7-15.8z"/><path class="st4" d="m246.7 1391.4 15.8-15.8h-15.6l-.2.2zm0 31.2 47-47h-15.6l-31.4 31.4zm0 31.2 78.2-78.2h-15.6l-62.6 62.6zm0 31.2 109.4-109.4h-15.6l-93.8 93.8zm125-93.8v-15.6l-125 125h15.6zm0 31.2v-15.6l-93.8 93.8h15.6l74.5-74.5zm0 15.6-62.5 62.6h15.6l46.9-47zm0 31.2-31.3 31.4H356l15.7-15.8z"/><path class="st3" d="M246.7 1750.6h125v375.3h-125z"/><path class="st4" d="M246.7 2000.9h125v250h-125z"/><path class="st2" d="m246.7 1891.7 15.8-15.8h-15.6l-.2.2zm0 31.2 47-47h-15.6l-31.4 31.4zm0 31.2 78.2-78.2h-15.6l-62.6 62.6zm0 31.2 109.4-109.4h-15.6l-93.8 93.8zm125-93.7v-15.7l-125 125h15.6zm0 31.2v-15.6l-93.8 93.7h15.6l74.5-74.4zm0 15.6-62.5 62.5h15.6l46.9-46.9zm0 31.2-31.3 31.3H356l15.7-15.7z"/><path class="st5" d="m246.7 2141.7 15.8-15.8h-15.6l-.2.2zm0 31.2 47-47h-15.6l-31.4 31.4zm0 31.2 78.2-78.2h-15.6l-62.6 62.6zm0 31.2 109.4-109.4h-15.6l-93.8 93.8zm125-93.7v-15.7l-125 125h15.6zm0 31.2v-15.6l-93.8 93.7h15.6l74.5-74.4zm0 15.6-62.5 62.5h15.6l46.9-46.9zm0 31.2-31.3 31.3H356l15.7-15.7z"/></g><g class="st0"><path class="st8" d="M36.9.9h208.3v625H36.9z"/><path class="st11" d="M36.9 27.2 63.2.9h-26l-.3.3zm0 52L115.2.9h-26L36.9 53.2zm0 52L167.2.9h-26L36.9 105.2zm0 52L219.3.9h-26L36.9 157.2zM245.3 26.9V.9L36.9 209.2h26zm0 52v-26L89 209.2h26L239.1 85.1zm0 26L141 209.2h26l78.3-78.3zm0 52L193 209.2h26l26.3-26.3z"/><path class="st9" d="m36.9 443.8 26.3-26.2h-26l-.3.2zm0 52.1 78.3-78.3h-26l-52.3 52.2zm0 52 130.3-130.3h-26L36.9 521.9zm0 52 182.4-182.3h-26L36.9 573.9zm208.4-156.3v-26L36.9 625.9h26zm0 52v-26L89 625.9h26l124.1-124.1zm0 26L141 625.9h26l78.3-78.3zm0 52L193 625.9h26l26.3-26.3zM36.9 625.9h208.3v417H36.9z"/><path class="st11" d="M36.9 1042.9h208.3v208.3H36.9zm0-182.1 26.3-26.2h-26l-.3.2zm0 52.1 78.3-78.3h-26l-52.3 52.3zm0 52 130.3-130.3h-26L36.9 938.9zm0 52 182.4-182.3h-26L36.9 990.9z"/><path class="st11" d="M245.3 860.6v-26L36.9 1042.9h26zm0 52v-26L89 1042.9h26l124.1-124.1zm0 26L141 1042.9h26l78.3-78.3zm0 52-52.3 52.3h26l26.3-26.3z"/><path class="st8" d="M36.9 1248.6h208.3v625H36.9z"/><path class="st11" d="m36.9 1274.9 26.3-26.3h-26l-.3.3zm0 52 78.3-78.3h-26l-52.3 52.3zm0 52 130.3-130.3h-26L36.9 1352.9zm0 52 182.4-182.3h-26L36.9 1404.9zm208.4-156.3v-26L36.9 1456.9h26zm0 52v-26L89 1456.9h26l124.1-124.1zm0 26L141 1456.9h26l78.3-78.3zm0 52-52.3 52.3h26l26.3-26.3z"/><path class="st9" d="m36.9 1691.5 26.3-26.2h-26l-.3.2zm0 52 78.3-78.2h-26l-52.3 52.2zm0 52.1 130.3-130.3h-26L36.9 1769.6zm0 52 182.4-182.3h-26L36.9 1821.6zm208.4-156.3v-26L36.9 1873.6h26zm0 52v-26L89 1873.6h26l124.1-124.1zm0 26L141 1873.6h26l78.3-78.3zm0 52-52.3 52.3h26l26.3-26.3zm-208.4 52.3h208.3v417H36.9z"/><path class="st11" d="M36.9 2290.6h208.3v208.3H36.9zm0-182.1 26.3-26.2h-26l-.3.2zm0 52.1 78.3-78.3h-26l-52.3 52.2zm0 52 130.3-130.3h-26L36.9 2186.6zm0 52 182.4-182.3h-26L36.9 2238.6z"/><path class="st11" d="M245.3 2108.3v-26L36.9 2290.6h26zm0 52v-26L89 2290.6h26l124.1-124.1zm0 26L141 2290.6h26l78.3-78.3zm0 52-52.3 52.3h26l26.3-26.3z"/></g></svg>